<?xml version="1.0" encoding="utf-8"?>
<!-- Generator: Adobe Illustrator 24.0.1, SVG Export Plug-In . SVG Version: 6.00 Build 0)  -->
<svg version="1.1" id="Capa_1" xmlns="http://www.w3.org/2000/svg" xmlns:xlink="http://www.w3.org/1999/xlink" x="0px" y="0px"
	 viewBox="0 0 351.1 351.1" style="enable-background:new 0 0 351.1 351.1;" xml:space="preserve">
<g>
	<path d="M128.7,189.6c2.7,12,23.2,24.8,39.2,24.9c1.1,0,2.2,0.3,3,0.8c0.7,0.3,1.5,0.5,1.9,1.3c5.6,7.6,2.7,13.7-6.5,18.6
		c-10.7,5.8-27.8,0.2-36.4-5c-21.6-13-43.7-35.5-42.8-57.1c-3.8-14.5-3.2-30.1,2.2-42.9c3.7-8.2,14.4-12.4,25.5-13
		s34.1-3.2,44.1,1.7c10,4.9,10.9,14.4,12.1,22.6c1.2,9,4.7,26-5.6,33.1C154.9,181.5,125.2,174.3,128.7,189.6z"/>
	<path d="M219.8,186.8c2.5,12.1,23,25.1,39.2,25.6c1.1,0,2.2,0.3,3,0.8c0.7,0.3,1.5,0.6,1.9,1.4c5.5,7.7,2.5,13.7-7,18.5
		c-11,5.6-28.2-0.3-36.8-5.6c-21.7-13.4-43.5-36.3-42.1-57.9c-3.5-14.5-2.6-30.1,3.2-42.9c3.9-8.2,14.9-12.2,26.2-12.6
		c11.3-0.4,34.7-2.6,44.8,2.4c10.1,5,10.7,14.6,11.7,22.8c1,9,4.1,26-6.5,33C246.7,179.2,216.3,171.5,219.8,186.8z"/>
</g>
</svg>
