<?xml version="1.0" encoding="utf-8"?>
<!-- Generator: Adobe Illustrator 24.0.1, SVG Export Plug-In . SVG Version: 6.00 Build 0)  -->
<svg version="1.1" id="Capa_1" xmlns="http://www.w3.org/2000/svg" xmlns:xlink="http://www.w3.org/1999/xlink" x="0px" y="0px"
	 viewBox="0 0 277.3 512" style="enable-background:new 0 0 277.3 512;" xml:space="preserve">
<style type="text/css">
	.st0{fill:#6897BE;}
</style>
<title>facebook</title>
<path class="st0" d="M202.7,85.3h64c5.9,0,10.7-4.8,10.7-10.7v-64c0-5.9-4.8-10.7-10.7-10.7c0,0,0,0,0,0h-64
	C137.9,0.1,85.4,52.6,85.3,117.3V192H10.7C4.8,192,0,196.8,0,202.7v64c0,5.9,4.8,10.7,10.7,10.7h74.7v224c0,5.9,4.8,10.7,10.7,10.7
	h64c5.9,0,10.7-4.8,10.7-10.7v-224h74.7c4.6,0,8.7-3,10.1-7.3l21.3-64c1.8-5.6-1.2-11.6-6.8-13.5c-1.1-0.3-2.2-0.5-3.3-0.5h-96
	v-74.7C170.7,99.7,185,85.3,202.7,85.3z"/>
</svg>
