<svg id="Layer_1" data-name="Layer 1" xmlns="http://www.w3.org/2000/svg" viewBox="0 0 512.06 488.74"><defs><style>.cls-1{fill:#3b8fd8;}</style></defs><title>favorite (1)</title><path class="cls-1" d="M511.2,197.1a16.69,16.69,0,0,0-13.6-11.4L341.1,162.9,271.1,21a16.83,16.83,0,0,0-30.2,0l-70,141.9L14.4,185.7A17,17,0,0,0,.8,197.1,16.81,16.81,0,0,0,5,214.3L118.3,324.7l-26.7,156A16.83,16.83,0,0,0,116,498.4l140-73.6,140,73.6a16.83,16.83,0,0,0,24.4-17.7L393.7,324.8,507,214.4A17,17,0,0,0,511.2,197.1ZM363.9,306.9a16.54,16.54,0,0,0-4.8,14.9l22.5,131.1L263.9,391a16.58,16.58,0,0,0-15.6,0L130.6,452.9l22.5-131.1a17.19,17.19,0,0,0-4.8-14.9L52.9,214l131.6-19.1a16.52,16.52,0,0,0,12.6-9.2L256,66.4l58.9,119.3a16.69,16.69,0,0,0,12.6,9.2L459.1,214Z" transform="translate(0.03 -11.6)"/></svg>