<?xml version="1.0" encoding="utf-8"?>
<!-- Generator: Adobe Illustrator 24.0.1, SVG Export Plug-In . SVG Version: 6.00 Build 0)  -->
<svg version="1.1" id="Layer_1" xmlns="http://www.w3.org/2000/svg" xmlns:xlink="http://www.w3.org/1999/xlink" x="0px" y="0px"
	 viewBox="0 0 512 512" style="enable-background:new 0 0 512 512;" xml:space="preserve">
<style type="text/css">
	.st0{fill:#F2687C;}
	.st1{fill:#666666;}
	.st2{fill:#FED198;}
	.st3{fill:#F0B97D;}
	.st4{fill:#E5CAD9;}
	.st5{fill:#FFFFFF;}
</style>
<path class="st0" d="M256,512c141,0,256-115,256-256C512,115,397,0,256,0S0,115,0,256C0,397,115,512,256,512z"/>
<path class="st1" d="M170.5,302c-21.3-53.9-66.2-102.6-9.8-200.8c23.2-40.4,58.7-67.1,95.4-58.1c36.7-9,72.2,17.6,95.4,58.1
	c56.4,98.2,11.6,146.9-9.8,200.8l-85.6,0.2L170.5,302L170.5,302z"/>
<path class="st2" d="M111.9,386.2c-2.7,4.3-9.4,41.1-16.7,69c44,35.5,99.9,56.8,160.8,56.8c60.9,0,116.9-21.3,160.8-56.8
	c-7.4-27.9-14.1-64.6-16.8-69c-41.1-66.4-104.5-37.4-108.8-113.4c0,0-20.4,15.2-36,15.4c-15.6,0.1-34.6-14.4-34.6-14.4
	C216.4,349.7,153,319.8,111.9,386.2z"/>
<path class="st3" d="M292.3,283.5c-0.5-3.3-0.9-6.9-1.1-10.7c0,0-20.4,15.2-36,15.4c-15.6,0.1-34.6-14.4-34.6-14.4
	c-0.2,3.9-0.6,7.5-1.1,10.9c0.4,0.3,0.8,0.6,1.2,0.9l0,0.1c1.2,1,19.4,16.7,34.5,16.6c15.1,0.2,33.3-15.5,34.5-16.6l0-0.1
	C290.6,284.9,291.5,284.2,292.3,283.5L292.3,283.5z"/>
<path class="st2" d="M220.8,273.8c1.2,0.9,19.4,14.5,34.5,14.3c15.1,0.1,33.3-13.4,34.5-14.3c22.8-13.3,41.4-52.4,37.2-94.8
	c-3.5-34.7-41,16.2-67.2-55.5c-37,77.6-72.2,31.7-76.2,61.1C179.2,217,197.3,257.8,220.8,273.8L220.8,273.8L220.8,273.8z"/>
<path class="st4" d="M190.9,328.1c-22.4,12-63.4,12.3-79,37.4c-2.7,4.4-9.5,57.9-17,89.4c44,35.7,100.1,57.1,161.1,57.1
	c61.1,0,117.1-21.4,161.1-57.1c-7.5-31.5-15.1-84.6-17-89.4c-10.4-26.1-58.3-27.2-80.7-39.3C284.5,452.8,232.5,461.4,190.9,328.1
	L190.9,328.1L190.9,328.1L190.9,328.1z"/>
<g>
	<path class="st5" d="M205.9,315.5c-1.5,39.4,5.2,95.1,49.4,109.4c-41.6,1.7-68.6-58.2-99.3-73.9L205.9,315.5L205.9,315.5
		L205.9,315.5z"/>
	<path class="st5" d="M307.2,315.5c1.5,39.4-5.5,95.1-51.9,109.4c43.7,1.7,72-58.2,104.3-73.9L307.2,315.5L307.2,315.5z"/>
</g>
</svg>
