<?xml version="1.0" encoding="utf-8"?>
<!-- Generator: Adobe Illustrator 24.0.1, SVG Export Plug-In . SVG Version: 6.00 Build 0)  -->
<svg version="1.1" id="Layer_1" xmlns="http://www.w3.org/2000/svg" xmlns:xlink="http://www.w3.org/1999/xlink" x="0px" y="0px"
	 viewBox="0 0 512 512" style="enable-background:new 0 0 512 512;" xml:space="preserve">
<style type="text/css">
	.st0{fill:#6897BE;}
</style>
<path class="st0" d="M412,120c-11,0-20-9-20-20c1.1-26.5,39-26.5,40,0C432,111,423,120,412,120z M492,356c11,0,20-9,20-20V80
	c0-44.1-35.9-80-80-80H80C35.9,0,0,35.9,0,80v352c0,44.1,35.9,80,80,80h352c44.1,0,80-35.9,80-80c0-11-9-20-20-20s-20,9-20,20
	c0,22.1-17.9,40-40,40H80c-22.1,0-40-17.9-40-40V80c0-22.1,17.9-40,40-40h352c22.1,0,40,17.9,40,40v256C472,347,481,356,492,356z
	 M320,236c-11,0-20,9-20,20c0,24.3-19.7,44-44,44s-44-19.7-44-44s19.7-44,44-44c11,0,20-9,20-20s-9-20-20-20c-46.3,0-84,37.7-84,84
	c4.6,111.4,163.4,111.4,168,0C340,245,331,236,320,236z M420,256c0,90.4-73.6,164-164,164c-217.6-9-217.5-319,0-328
	C346.4,92,420,165.6,420,256z M380,256c0-68.4-55.6-124-124-124c-164.5,6.8-164.5,241.2,0,248C324.4,380,380,324.4,380,256z"/>
</svg>
