<?xml version="1.0" encoding="utf-8"?>
<!-- Generator: Adobe Illustrator 24.0.1, SVG Export Plug-In . SVG Version: 6.00 Build 0)  -->
<svg version="1.1" xmlns="http://www.w3.org/2000/svg" xmlns:xlink="http://www.w3.org/1999/xlink" x="0px" y="0px"
	 viewBox="0 0 93.4 77" style="enable-background:new 0 0 93.4 77;" xml:space="preserve">
<style type="text/css">
	.st0{display:none;}
	.st1{display:inline;fill:#FFD2E5;}
	.st2{display:inline;fill:#FFC1FF;}
	.st3{display:inline;fill:#CCEEFF;}
	.st4{display:inline;fill:#FFAACC;}
	.st5{display:inline;fill:none;}
	.st6{display:inline;fill:#3F3D3D;stroke:#3F3D3D;stroke-width:0.55;stroke-miterlimit:10;}
	.st7{display:inline;fill:#3F3D3D;stroke:#3F3D3D;stroke-width:0.5596;stroke-miterlimit:10;}
	.st8{display:inline;fill:#3F3D3D;stroke:#3F3D3D;stroke-width:0.57;stroke-miterlimit:10;}
	.st9{display:inline;fill:#3F3D3D;stroke:#3F3D3D;stroke-width:0.5417;stroke-miterlimit:10;}
	.st10{display:inline;fill:#3F3D3D;stroke:#3F3D3D;stroke-width:0.573;stroke-miterlimit:10;}
	.st11{display:inline;fill:#3F3D3D;stroke:#3F3D3D;stroke-width:0.5835;stroke-miterlimit:10;}
	.st12{display:inline;fill:#3F3D3D;stroke:#3F3D3D;stroke-width:0.5753;stroke-miterlimit:10;}
	.st13{display:inline;fill:#3F3D3D;stroke:#3F3D3D;stroke-width:0.575;stroke-miterlimit:10;}
	.st14{display:inline;fill:#3F3D3D;stroke:#3F3D3D;stroke-width:0.5713;stroke-miterlimit:10;}
	.st15{display:inline;fill:#3F3D3D;stroke:#3F3D3D;stroke-width:0.5831;stroke-miterlimit:10;}
	.st16{display:inline;fill:#3F3D3D;stroke:#3F3D3D;stroke-width:0.5848;stroke-miterlimit:10;}
	.st17{fill:#FFD2E5;}
	.st18{fill:#FFC1FF;}
	.st19{fill:#CCEEFF;}
	.st20{fill:#FFAACC;}
	.st21{display:none;fill:none;}
	.st22{display:none;fill:#FFAACC;}
	.st23{fill:#4C4B4B;stroke:#4C4B4B;stroke-width:0.4225;stroke-miterlimit:10;}
	.st24{fill:#3F3D3D;stroke:#3F3D3D;stroke-width:0.4299;stroke-miterlimit:10;}
	.st25{fill:#4C4B4B;stroke:#4C4B4B;stroke-width:0.4379;stroke-miterlimit:10;}
	.st26{fill:#4C4B4B;stroke:#4C4B4B;stroke-width:0.4162;stroke-miterlimit:10;}
	.st27{fill:#4C4B4B;stroke:#4C4B4B;stroke-width:0.4402;stroke-miterlimit:10;}
	.st28{fill:#4C4B4B;stroke:#4C4B4B;stroke-width:0.4483;stroke-miterlimit:10;}
	.st29{fill:#4C4B4B;stroke:#4C4B4B;stroke-width:0.442;stroke-miterlimit:10;}
	.st30{fill:#4C4B4B;stroke:#4C4B4B;stroke-width:0.4418;stroke-miterlimit:10;}
	.st31{fill:#4C4B4B;stroke:#4C4B4B;stroke-width:0.4389;stroke-miterlimit:10;}
	.st32{fill:#3F3D3D;stroke:#3F3D3D;stroke-width:0.448;stroke-miterlimit:10;}
	.st33{fill:#4C4B4B;stroke:#4C4B4B;stroke-width:0.4493;stroke-miterlimit:10;}
	.st34{fill:none;}
	.st35{display:none;fill:#CCEEFF;}
	.st36{display:none;fill:#FFC1FF;}
	.st37{font-family:'Apple-Chancery';}
	.st38{font-size:5.4852px;}
	.st39{font-size:6px;}
</style>
<g id="Calque_3" class="st0">
	<title>LESAMAZONES1</title>
	<ellipse class="st1" cx="7.9" cy="70.6" rx="4" ry="2.1"/>
	<ellipse class="st1" cx="16" cy="66.9" rx="3.9" ry="2"/>
	<ellipse transform="matrix(0.9854 -0.1701 0.1701 0.9854 -9.7636 4.0404)" class="st2" cx="18.7" cy="59" rx="2.7" ry="2.8"/>
	<ellipse class="st1" cx="37.1" cy="50.9" rx="4" ry="2.1"/>
	<ellipse class="st1" cx="41" cy="42.2" rx="3.4" ry="3"/>
	<ellipse transform="matrix(0.3098 -0.9508 0.9508 0.3098 6.2679 60.6076)" class="st1" cx="44.9" cy="26" rx="2.9" ry="3.7"/>
	<ellipse class="st1" cx="44.6" cy="14.8" rx="2.5" ry="2.7"/>
	<ellipse class="st1" cx="40.8" cy="10.9" rx="4" ry="3.6"/>
	<ellipse class="st1" cx="19" cy="11.8" rx="5.4" ry="3.6"/>
	<ellipse transform="matrix(0.9346 -0.3558 0.3558 0.9346 -7.4181 7.0663)" class="st1" cx="15.5" cy="23.7" rx="5.2" ry="3.6"/>
	<ellipse class="st1" cx="20.3" cy="32.1" rx="3.8" ry="3.1"/>
	<ellipse class="st1" cx="37" cy="44.1" rx="3.2" ry="2.2"/>
	<ellipse class="st1" cx="41.2" cy="61.8" rx="3.9" ry="2.8"/>
	<ellipse class="st1" cx="48.4" cy="69.3" rx="3.7" ry="3.2"/>
	<ellipse class="st1" cx="22.9" cy="45.6" rx="4.1" ry="3.5"/>
	<ellipse class="st1" cx="30.3" cy="48.5" rx="3.7" ry="2.8"/>
	<ellipse class="st1" cx="34.3" cy="6.1" rx="4.4" ry="3.6"/>
	<ellipse class="st2" cx="8.6" cy="67.2" rx="4.2" ry="3.5"/>
	<ellipse class="st3" cx="15.1" cy="70.2" rx="4.4" ry="2.9"/>
	<ellipse class="st3" cx="13.8" cy="62.7" rx="3.6" ry="2.4"/>
	<ellipse transform="matrix(0.9759 -0.2181 0.2181 0.9759 -10.7706 6.2222)" class="st2" cx="22.8" cy="51.9" rx="3.3" ry="3.6"/>
	<ellipse class="st2" cx="26.1" cy="52.3" rx="4.2" ry="2.5"/>
	<ellipse class="st3" cx="22.8" cy="57.6" rx="3.6" ry="3.8"/>
	<ellipse class="st2" cx="40.3" cy="52.1" rx="2.7" ry="2.2"/>
	<ellipse class="st2" cx="41.4" cy="37.3" rx="3.4" ry="2.6"/>
	<ellipse class="st3" cx="31.4" cy="43.7" rx="3.6" ry="3"/>
	<ellipse class="st2" cx="36" cy="46.7" rx="3.3" ry="2.8"/>
	<ellipse class="st3" cx="44.3" cy="58.4" rx="3" ry="1.9"/>
	<ellipse class="st2" cx="42.8" cy="55.4" rx="2.9" ry="3.2"/>
	<ellipse class="st3" cx="45.9" cy="65" rx="3.5" ry="3.4"/>
	<ellipse class="st3" cx="54.4" cy="73.5" rx="4.6" ry="3.5"/>
	<ellipse transform="matrix(0.7055 -0.7087 0.7087 0.7055 -29.2315 52.2171)" class="st2" cx="48.2" cy="61.3" rx="3.1" ry="3.6"/>
	<ellipse class="st3" cx="39.9" cy="49" rx="3.8" ry="2.8"/>
	<ellipse class="st3" cx="25.6" cy="47.9" rx="3.7" ry="3.2"/>
	<ellipse class="st3" cx="44.2" cy="38.2" rx="3.4" ry="2.5"/>
	<ellipse class="st3" cx="19" cy="37.7" rx="3.5" ry="3"/>
	<ellipse class="st2" cx="15.9" cy="34.8" rx="4.1" ry="3.5"/>
	<ellipse class="st2" cx="36.9" cy="11.6" rx="4" ry="3.2"/>
	<ellipse class="st3" cx="14.6" cy="28.9" rx="4.1" ry="3.4"/>
	<ellipse class="st2" cx="15.4" cy="17.6" rx="3.8" ry="3.8"/>
	<ellipse class="st3" cx="24" cy="14.1" rx="4" ry="2.6"/>
	<ellipse class="st3" cx="24.3" cy="6.1" rx="5.2" ry="3.7"/>
	<ellipse class="st2" cx="29.2" cy="9.5" rx="4.9" ry="3.4"/>
	<ellipse class="st3" cx="38.9" cy="7" rx="2.7" ry="2.9"/>
	<ellipse class="st2" cx="21.8" cy="10.8" rx="3" ry="2.4"/>
	<ellipse class="st3" cx="41.2" cy="17.9" rx="3.2" ry="2.9"/>
	<ellipse class="st3" cx="41.4" cy="12.5" rx="2" ry="2.4"/>
	<ellipse class="st3" cx="46.8" cy="22.2" rx="4.3" ry="3.3"/>
	<ellipse class="st2" cx="41.4" cy="22.4" rx="3.4" ry="2.9"/>
	<ellipse class="st2" cx="47" cy="29.4" rx="2.9" ry="3.1"/>
	<ellipse class="st3" cx="41.3" cy="28.5" rx="2.7" ry="2.8"/>
	<ellipse class="st3" cx="37" cy="54.6" rx="3.6" ry="3"/>
	<ellipse class="st3" cx="4.3" cy="72.1" rx="4.3" ry="3.4"/>
	<ellipse class="st2" cx="12" cy="73.7" rx="4.5" ry="3.3"/>
	<ellipse transform="matrix(0.9599 -0.2802 0.2802 0.9599 -17.1993 18.5006)" class="st2" cx="56.1" cy="69.4" rx="3.9" ry="3.8"/>
	<ellipse class="st4" cx="19.5" cy="16.1" rx="3.7" ry="2.6"/>
	<ellipse class="st4" cx="45" cy="17.6" rx="4.5" ry="3.3"/>
	<ellipse class="st4" cx="52.2" cy="65.8" rx="3.2" ry="2.6"/>
	<ellipse class="st4" cx="43.9" cy="32.7" rx="4.5" ry="3.6"/>
	<ellipse class="st4" cx="35.9" cy="41.9" rx="3.4" ry="2.6"/>
	<ellipse class="st4" cx="28.2" cy="3.8" rx="5.2" ry="3.8"/>
	<ellipse transform="matrix(0.9538 -0.3004 0.3004 0.9538 -7.0143 6.9839)" class="st4" cx="19.2" cy="26.3" rx="4.4" ry="3"/>
	<ellipse transform="matrix(0.9859 -0.1673 0.1673 0.9859 -10.4041 4.2969)" class="st4" cx="20.3" cy="63.9" rx="3.8" ry="3.1"/>
	<ellipse class="st5" cx="30.3" cy="48.4" rx="4.7" ry="3.8"/>
	<ellipse class="st4" cx="19.6" cy="41" rx="4.6" ry="3.7"/>
	<ellipse class="st4" cx="40.6" cy="58.2" rx="3.3" ry="2.6"/>
	<ellipse class="st2" cx="50.9" cy="72.5" rx="3.6" ry="3"/>
	<path class="st6" d="M32.9,51.8l0.8-0.9c0.2,0.1,0.4,0.1,0.7,0.1c0.4-0.2,0.7-0.5,0.8-1.1c0.2-0.7,0.3-1.5,0.2-2.3v-1.1
		c0-1.3,0.3-2.5,1-3.3c0.5-0.6,1.2-1,1.9-1c0.3,0,0.6,0.1,0.8,0.3l-0.8,1c-0.3-0.3-0.6-0.4-0.9-0.4c-0.7,0-1.1,0.9-1.1,2.6v1
		c0,1-0.1,2-0.3,3c-0.2,0.7-0.6,1.2-1,1.5l1,0.1h1.5c0.7,0.1,1.4-0.3,2-1c0,0.1,0.1,0.2,0.1,0.2c-0.1,0.3-0.3,0.6-0.5,0.8
		c-0.5,0.6-1.1,0.9-1.8,1h-0.9L35,52C34.3,52,33.6,51.9,32.9,51.8z"/>
	<path class="st7" d="M43.2,49.7c0.1,0,0.1,0.2,0.1,0.3c0,0.2-0.1,0.4-0.3,0.8c-0.4,0.8-1,1.3-1.7,1.4c-0.3,0-0.6-0.2-0.8-0.6
		c-0.2-0.4-0.4-1-0.3-1.6c0-1.2,0.3-2.4,0.9-3.3c0.4-0.9,1-1.5,1.7-1.6c0.4,0,0.6,0.3,0.6,0.9c0,0.8-0.3,1.6-0.7,2
		c-0.5,0.7-1.1,1.2-1.8,1.4c0.1,1.1,0.4,1.7,0.9,1.7C42.4,51.2,43,50.7,43.2,49.7z M40.9,48.7h0.3c0.4,0,0.8-0.2,1.1-0.5
		s0.5-0.7,0.5-1.3c0-0.5-0.2-0.8-0.6-0.8c-0.3,0-0.6,0.3-0.8,0.7C41.1,47.3,40.9,48,40.9,48.7z"/>
	<path class="st8" d="M43.7,51.7l0.7-0.8c0.3,0.4,0.6,0.6,1,0.6c0.5,0,0.7-0.3,0.7-1c0-0.4-0.2-0.9-0.7-1.6l-0.3-0.4
		c-0.4-0.6-0.6-1.2-0.6-1.6c0-0.6,0.2-1.1,0.5-1.4c0.4-0.3,0.8-0.5,1.3-0.4c0.3,0,0.6,0.1,0.9,0.2l-0.6,0.8
		c-0.3-0.3-0.6-0.4-0.9-0.4c-0.4,0-0.6,0.2-0.6,0.7s0.2,0.8,0.6,1.4l0.3,0.5c0.5,0.7,0.7,1.2,0.7,1.7c0,0.7-0.3,1.2-0.6,1.6
		C45.5,52.3,44.5,52.4,43.7,51.7L43.7,51.7z"/>
	<path class="st9" d="M51,46.4l-0.9,1.1c-0.2-0.5-0.2-1-0.2-1.6c0-1.2,0.5-2.3,1.2-2.8c1.1-0.7,2.3-1,3.5-0.9h0.8h0.9h0.4
		c-0.4,1.1-0.6,2.4-0.5,3.6V47c0,1,0.1,2,0.3,3c0,0.3,0.1,0.5,0.2,0.8c0.1,0.1,0.2,0.2,0.4,0.2s0.5-0.1,0.7-0.2c0,0.1,0,0.1,0,0.2
		c0,0.1-0.1,0.2-0.2,0.3l-0.3,0.2l-1.4,0.8c-0.3-1.2-0.5-2.5-0.6-3.8l-0.4,0.4H53c-0.3,1-0.8,1.8-1.4,2.4l1.1,0.1L52,52l-2.3-0.1
		l0.8-0.8h0.6c0.3-0.3,0.5-0.6,0.7-1c0.3-0.8,0.6-1.6,0.8-2.5l0.2-0.6c0.2-0.9,0.6-1.8,1-2.6c0.3-0.6,0.8-1,1.3-1.3
		c-0.6-0.1-1.3-0.2-1.9-0.2c-1.7,0-2.5,0.7-2.5,2.1C50.7,45.5,50.8,46,51,46.4z M55.4,48c0-0.8-0.1-1.6-0.1-2v-1.4
		c0-0.4,0.1-0.9,0.1-1.3c-0.9,0.8-1.5,2-1.8,3.5c-0.1,0.5-0.2,0.8-0.2,0.9L53.2,48H55.4z"/>
	<path class="st10" d="M62.3,51.7l-0.8,0.4v-1.3l0.3-3.2v-0.9c0-0.5-0.1-0.7-0.3-0.7c-0.5,0.2-0.8,0.7-1.1,1.4
		c-0.4,0.8-0.6,1.7-0.7,2.6l-0.1,1.7l-0.8,0.4v-1.3l0.3-3.4V47c0-0.2,0-0.5,0-0.7c0-0.3,0-0.5-0.2-0.5s-0.5,0.4-0.8,1.2
		C58,47.1,58,47,58,46.9c0.1-0.5,0.3-0.9,0.6-1.2c0.2-0.4,0.6-0.7,0.9-0.8c0.3,0,0.4,0.3,0.4,0.8c0,0.2,0,0.4,0,0.5v1.1v0.5l0.2-0.3
		c0.8-1.8,1.5-2.6,2.1-2.6c0.3,0,0.5,0.3,0.5,1v0.7v0.7l-0.1,0.9c0.3-0.9,0.6-1.7,1-2.3c0.3-0.5,0.7-0.9,1.2-1
		c0.3,0,0.5,0.3,0.5,0.9c0,0.3,0,0.6,0,1L65,49.5c0,0.4-0.1,0.9-0.1,1.3c0,0.3,0,0.4,0.2,0.4c0.2-0.1,0.3-0.2,0.4-0.4
		c0.2-0.3,0.3-0.6,0.4-0.9C66,50,66,50.1,66,50.2c-0.1,0.5-0.3,0.9-0.6,1.2c-0.2,0.4-0.6,0.7-0.9,0.8c-0.3,0-0.4-0.3-0.4-0.8
		s0-1.1,0.1-1.6l0.2-1.8v-1.4c0-0.4-0.1-0.6-0.3-0.6c-0.5,0.2-0.9,0.7-1.1,1.4c-0.4,0.8-0.6,1.7-0.7,2.6L62.3,51.7z"/>
	<path class="st11" d="M69.5,48.9c-0.3,0.9-0.8,1.7-1.3,2.4c-0.3,0.5-0.7,0.8-1.2,0.9c-0.5,0-0.7-0.6-0.7-1.7c0-3.2,1.5-5.7,3.4-5.8
		c0.3,0,0.6,0.1,0.9,0.2v0.2l-0.1,0.4c0,0.2,0,0.3-0.1,0.5l-0.3,3.4v0.5c0,0.3-0.1,0.6-0.1,1c0,0.2,0,0.3,0.1,0.3
		c0.3,0,0.6-0.5,0.9-1.4c0.1,0,0.1,0.2,0.1,0.2s-0.1,0.5-0.4,1.1s-0.7,1-1.1,1.1c-0.2,0-0.4-0.2-0.4-0.7v-0.7v-0.6l0.1-0.7
		L69.5,48.9z M69.8,45.8c-0.3-0.3-0.6-0.4-0.9-0.4c-0.5,0-1,0.5-1.2,1.3c-0.3,1-0.5,2.1-0.5,3.3c0,0.7,0.1,1,0.4,1
		c0.4-0.1,0.8-0.5,1.1-1.1c0.6-0.9,0.9-2,1.1-3.2V45.8z"/>
	<path class="st12" d="M71.3,52.1l0.4-1.1c0.2-0.3,0.4-0.6,0.6-0.9l0.3-0.6l0.2-0.4l0.2-0.4l0.3-0.7l0.5-0.8l0.4-0.7l0.1-0.2h-0.1
		c-0.3,0-0.6-0.1-0.9-0.3h-0.2L73,45.9c-0.1,0-0.2,0-0.2,0c-0.2,0-0.3,0.1-0.4,0.4l0,0v0.1c0,0.1,0,0.3,0.1,0.4l-0.6,0.7v-0.3
		c0-0.6,0.1-1.2,0.4-1.6c0.2-0.4,0.6-0.6,0.9-0.6h0.4h0.3h0.2c0.2,0.1,0.4,0.1,0.6,0.1c0.3,0,0.5-0.1,0.8-0.2L75.1,46
		c-0.2,0.4-0.5,0.8-0.8,1.3L73.9,48l-0.3,0.6L73.4,49l-0.2,0.4L72.8,50l-0.2,0.5l-0.2,0.3h0.5c0.2,0,0.5,0,0.7,0.1h1
		c0.3,0,0.5-0.1,0.7-0.4c0.1,0.1,0.1,0.1,0.1,0.2c0,0.3-0.1,0.6-0.3,0.7c-0.2,0.2-0.4,0.3-0.6,0.3h-1.7
		C72.2,51.8,71.8,51.9,71.3,52.1z"/>
	<path class="st13" d="M77.1,52.2c-0.8,0-1.2-0.7-1.2-2.2c0-1.3,0.4-2.5,0.9-3.4c0.4-0.9,1.1-1.5,1.8-1.6c0.8,0,1.2,0.7,1.2,2.2
		c0,1.3-0.4,2.5-0.9,3.4C78.5,51.5,77.8,52.1,77.1,52.2z M77.7,51.3c0.4,0,0.8-0.4,1-1c0.3-0.7,0.4-1.5,0.4-2.3c0-1.6-0.3-2.3-1-2.3
		c-0.4,0.1-0.7,0.4-0.9,1c-0.3,0.7-0.4,1.5-0.4,2.4C76.7,50.6,77,51.3,77.7,51.3L77.7,51.3z"/>
	<path class="st14" d="M81.8,51.7L81,52.2v-1.3l0.2-3.4v-1.1c0-0.2,0-0.5-0.2-0.5c-0.4,0.2-0.6,0.7-0.8,1.2
		c-0.1-0.1-0.1-0.2-0.1-0.2c0.1-0.5,0.3-0.9,0.6-1.2c0.2-0.4,0.6-0.7,0.9-0.8c0.3,0,0.4,0.3,0.4,0.8v2.1c0.4-0.8,0.8-1.5,1.3-2.1
		c0.3-0.5,0.8-0.8,1.2-0.9c0.3,0,0.5,0.3,0.5,1c0,0.3,0,0.6-0.1,0.9l-0.3,2.7c0,0.4-0.1,0.9-0.1,1.3c0,0.2,0,0.4,0.2,0.4
		c0.4-0.3,0.7-0.8,0.9-1.3c0.1,0,0.1,0.2,0.1,0.2c0,0.3-0.2,0.7-0.6,1.2c-0.3,0.4-0.6,0.7-0.9,0.8c-0.3,0-0.4-0.3-0.4-0.8
		s0-1.1,0.1-1.6l0.2-1.8c0.1-0.5,0.1-0.9,0.1-1.4c0-0.4-0.1-0.6-0.3-0.6c-0.5,0.1-1,0.6-1.3,1.3C82.3,48,82,48.9,82,49.9L81.8,51.7z
		"/>
	<path class="st15" d="M89.3,49.6c0.1,0.1,0.1,0.2,0.1,0.3c0,0.2-0.1,0.4-0.3,0.8c-0.4,0.9-1,1.4-1.7,1.5c-0.3,0-0.6-0.2-0.9-0.6
		c-0.2-0.5-0.4-1.1-0.3-1.7c0-1.3,0.4-2.6,0.9-3.5c0.4-1,1-1.6,1.7-1.7c0.4,0,0.6,0.3,0.6,1c0,0.9-0.3,1.7-0.7,2.2
		c-0.5,0.7-1.1,1.2-1.8,1.5c0.1,1.2,0.4,1.8,0.9,1.8C88.5,51.2,89.1,50.5,89.3,49.6z M87,48.5h0.3c0.4,0,0.8-0.2,1.1-0.6
		c0.3-0.3,0.5-0.8,0.5-1.4c0-0.6-0.2-0.9-0.6-0.9c-0.3,0-0.6,0.3-0.8,0.8C87.2,47,87.1,47.7,87,48.5L87,48.5z"/>
	<path class="st16" d="M89.8,51.8l0.7-0.8c0.3,0.4,0.6,0.6,1,0.6c0.5,0,0.7-0.3,0.7-1c0-0.4-0.2-0.9-0.7-1.6l-0.3-0.4
		c-0.4-0.7-0.6-1.2-0.6-1.6c0-0.6,0.2-1.2,0.5-1.5c0.4-0.4,0.8-0.6,1.3-0.6c0.3,0,0.6,0.1,0.9,0.2l-0.6,0.8
		c-0.3-0.3-0.6-0.4-0.9-0.4c-0.4,0-0.6,0.2-0.6,0.7s0.2,0.8,0.6,1.4l0.3,0.5c0.5,0.7,0.7,1.3,0.7,1.7c0,0.7-0.3,1.3-0.6,1.6
		C91.5,52.3,90.5,52.4,89.8,51.8L89.8,51.8z"/>
	<rect x="36.8" y="44.1" class="st5" width="58" height="10.1"/>
</g>
<g id="Calque_4" class="st0">
	<ellipse class="st1" cx="-116.7" cy="49.2" rx="4" ry="2.1"/>
	<ellipse class="st1" cx="-108.6" cy="45.5" rx="3.9" ry="2"/>
	
		<ellipse transform="matrix(0.9854 -0.1701 0.1701 0.9854 -7.9377 -17.4621)" class="st2" cx="-105.9" cy="37.6" rx="2.7" ry="2.8"/>
	<ellipse class="st1" cx="-87.5" cy="29.5" rx="4" ry="2.1"/>
	<ellipse class="st1" cx="-83.6" cy="20.8" rx="3.4" ry="3"/>
	<ellipse transform="matrix(0.3098 -0.9508 0.9508 0.3098 -59.3588 -72.6119)" class="st1" cx="-79.7" cy="4.6" rx="2.9" ry="3.7"/>
	<ellipse class="st1" cx="-80" cy="-6.6" rx="2.5" ry="2.7"/>
	<ellipse class="st1" cx="-83.8" cy="-10.5" rx="4" ry="3.6"/>
	<ellipse class="st1" cx="-105.6" cy="-9.6" rx="5.4" ry="3.6"/>
	<ellipse transform="matrix(0.9346 -0.3558 0.3558 0.9346 -7.953 -38.656)" class="st1" cx="-109.1" cy="2.3" rx="5.2" ry="3.6"/>
	<ellipse class="st1" cx="-104.3" cy="10.7" rx="3.8" ry="3.1"/>
	<ellipse class="st1" cx="-87.6" cy="22.7" rx="3.2" ry="2.2"/>
	<ellipse class="st1" cx="-83.4" cy="40.4" rx="3.9" ry="2.8"/>
	<ellipse class="st1" cx="-76.2" cy="47.9" rx="3.7" ry="3.2"/>
	<ellipse class="st1" cx="-101.7" cy="24.2" rx="4.1" ry="3.5"/>
	<ellipse class="st1" cx="-94.3" cy="27.1" rx="3.7" ry="2.8"/>
	<ellipse class="st1" cx="-90.3" cy="-15.3" rx="4.4" ry="3.6"/>
	<ellipse class="st2" cx="-116" cy="45.8" rx="4.2" ry="3.5"/>
	<ellipse class="st3" cx="-109.5" cy="48.8" rx="4.4" ry="2.9"/>
	<ellipse class="st3" cx="-110.8" cy="41.3" rx="3.6" ry="2.4"/>
	
		<ellipse transform="matrix(0.9759 -0.2181 0.2181 0.9759 -9.1007 -21.4633)" class="st2" cx="-101.8" cy="30.5" rx="3.3" ry="3.6"/>
	<ellipse class="st2" cx="-98.5" cy="30.9" rx="4.2" ry="2.5"/>
	<ellipse class="st3" cx="-101.8" cy="36.2" rx="3.6" ry="3.8"/>
	<ellipse class="st2" cx="-84.3" cy="30.7" rx="2.7" ry="2.2"/>
	<ellipse class="st2" cx="-83.2" cy="15.9" rx="3.4" ry="2.6"/>
	<ellipse class="st3" cx="-93.2" cy="22.3" rx="3.6" ry="3"/>
	<ellipse class="st2" cx="-88.6" cy="25.3" rx="3.3" ry="2.8"/>
	<ellipse class="st3" cx="-80.3" cy="37" rx="3" ry="1.9"/>
	<ellipse class="st2" cx="-81.8" cy="34" rx="2.9" ry="3.2"/>
	<ellipse class="st3" cx="-78.7" cy="43.6" rx="3.5" ry="3.4"/>
	<ellipse class="st3" cx="-70.2" cy="52.1" rx="4.6" ry="3.5"/>
	
		<ellipse transform="matrix(0.7055 -0.7087 0.7087 0.7055 -50.7466 -42.3729)" class="st2" cx="-76.4" cy="39.9" rx="3.1" ry="3.6"/>
	<ellipse class="st3" cx="-84.7" cy="27.6" rx="3.8" ry="2.8"/>
	<ellipse class="st3" cx="-99" cy="26.5" rx="3.7" ry="3.2"/>
	<ellipse class="st3" cx="-80.4" cy="16.8" rx="3.4" ry="2.5"/>
	<ellipse class="st3" cx="-105.6" cy="16.3" rx="3.5" ry="3"/>
	<ellipse class="st2" cx="-108.7" cy="13.4" rx="4.1" ry="3.5"/>
	<ellipse class="st2" cx="-87.7" cy="-9.8" rx="4" ry="3.2"/>
	<ellipse class="st3" cx="-110" cy="7.5" rx="4.1" ry="3.4"/>
	<ellipse class="st2" cx="-109.2" cy="-3.8" rx="3.8" ry="3.8"/>
	<ellipse class="st3" cx="-100.6" cy="-7.3" rx="4" ry="2.6"/>
	<ellipse class="st3" cx="-100.3" cy="-15.3" rx="5.2" ry="3.7"/>
	<ellipse class="st2" cx="-95.4" cy="-11.9" rx="4.9" ry="3.4"/>
	<ellipse class="st3" cx="-85.7" cy="-14.4" rx="2.7" ry="2.9"/>
	<ellipse class="st2" cx="-102.8" cy="-10.6" rx="3" ry="2.4"/>
	<ellipse class="st3" cx="-83.4" cy="-3.5" rx="3.2" ry="2.9"/>
	<ellipse class="st3" cx="-83.2" cy="-8.9" rx="2" ry="2.4"/>
	<ellipse class="st3" cx="-77.8" cy="0.8" rx="4.3" ry="3.3"/>
	<ellipse class="st2" cx="-83.2" cy="1" rx="3.4" ry="2.9"/>
	<ellipse class="st2" cx="-77.6" cy="8" rx="2.9" ry="3.1"/>
	<ellipse class="st3" cx="-83.3" cy="7.1" rx="2.7" ry="2.8"/>
	<ellipse class="st3" cx="-87.6" cy="33.2" rx="3.6" ry="3"/>
	<ellipse class="st3" cx="-120.3" cy="50.7" rx="4.3" ry="3.4"/>
	<ellipse class="st2" cx="-112.6" cy="52.3" rx="4.5" ry="3.3"/>
	<ellipse transform="matrix(0.9599 -0.2802 0.2802 0.9599 -16.1914 -17.2638)" class="st2" cx="-68.5" cy="48" rx="3.9" ry="3.8"/>
	<ellipse class="st4" cx="-105.1" cy="-5.3" rx="3.7" ry="2.6"/>
	<ellipse class="st4" cx="-79.6" cy="-3.8" rx="4.5" ry="3.3"/>
	<ellipse class="st4" cx="-72.4" cy="44.4" rx="3.2" ry="2.6"/>
	<ellipse class="st4" cx="-80.7" cy="11.3" rx="4.5" ry="3.6"/>
	<ellipse class="st4" cx="-88.7" cy="20.5" rx="3.4" ry="2.6"/>
	<ellipse class="st4" cx="-96.4" cy="-17.6" rx="5.2" ry="3.8"/>
	<ellipse transform="matrix(0.9538 -0.3004 0.3004 0.9538 -6.3374 -31.4272)" class="st4" cx="-105.4" cy="4.9" rx="4.4" ry="3"/>
	
		<ellipse transform="matrix(0.9859 -0.1673 0.1673 0.9859 -8.5785 -16.8461)" class="st4" cx="-104.3" cy="42.5" rx="3.8" ry="3.1"/>
	<ellipse class="st5" cx="-94.3" cy="27" rx="4.7" ry="3.8"/>
	<ellipse class="st4" cx="-105" cy="19.6" rx="4.6" ry="3.7"/>
	<ellipse class="st4" cx="-84" cy="36.8" rx="3.3" ry="2.6"/>
	<ellipse class="st2" cx="-73.7" cy="51.1" rx="3.6" ry="3"/>
	<path class="st6" d="M-91.7,30.4l0.8-0.9c0.2,0.1,0.4,0.1,0.7,0.1c0.4-0.2,0.7-0.5,0.8-1.1c0.2-0.7,0.3-1.5,0.2-2.3v-1.1
		c0-1.3,0.3-2.5,1-3.3c0.5-0.6,1.2-1,1.9-1c0.3,0,0.6,0.1,0.8,0.3l-0.8,1c-0.3-0.3-0.6-0.4-0.9-0.4c-0.7,0-1.1,0.9-1.1,2.6v1
		c0,1-0.1,2-0.3,3c-0.2,0.7-0.6,1.2-1,1.5l1,0.1h1.5c0.7,0.1,1.4-0.3,2-1c0,0.1,0.1,0.2,0.1,0.2c-0.1,0.3-0.3,0.6-0.5,0.8
		c-0.5,0.6-1.1,0.9-1.8,1h-0.9l-1.4-0.3C-90.3,30.6-91,30.5-91.7,30.4z"/>
	<path class="st7" d="M-81.4,28.3c0.1,0,0.1,0.2,0.1,0.3c0,0.2-0.1,0.4-0.3,0.8c-0.4,0.8-1,1.3-1.7,1.4c-0.3,0-0.6-0.2-0.8-0.6
		c-0.2-0.4-0.4-1-0.3-1.6c0-1.2,0.3-2.4,0.9-3.3c0.4-0.9,1-1.5,1.7-1.6c0.4,0,0.6,0.3,0.6,0.9c0,0.8-0.3,1.6-0.7,2
		c-0.5,0.7-1.1,1.2-1.8,1.4c0.1,1.1,0.4,1.7,0.9,1.7C-82.2,29.8-81.6,29.3-81.4,28.3z M-83.7,27.3h0.3c0.4,0,0.8-0.2,1.1-0.5
		c0.3-0.3,0.5-0.7,0.5-1.3c0-0.5-0.2-0.8-0.6-0.8c-0.3,0-0.6,0.3-0.8,0.7C-83.5,25.9-83.7,26.6-83.7,27.3z"/>
	<path class="st8" d="M-80.9,30.3l0.7-0.8c0.3,0.4,0.6,0.6,1,0.6c0.5,0,0.7-0.3,0.7-1c0-0.4-0.2-0.9-0.7-1.6l-0.3-0.4
		c-0.4-0.6-0.6-1.2-0.6-1.6c0-0.6,0.2-1.1,0.5-1.4c0.4-0.3,0.8-0.5,1.3-0.4c0.3,0,0.6,0.1,0.9,0.2l-0.6,0.8
		c-0.3-0.3-0.6-0.4-0.9-0.4c-0.4,0-0.6,0.2-0.6,0.7s0.2,0.8,0.6,1.4l0.3,0.5c0.5,0.7,0.7,1.2,0.7,1.7c0,0.7-0.3,1.2-0.6,1.6
		C-79.1,30.9-80.1,31-80.9,30.3L-80.9,30.3z"/>
	<path class="st9" d="M-73.6,25l-0.9,1.1c-0.2-0.5-0.2-1-0.2-1.6c0-1.2,0.5-2.3,1.2-2.8c1.1-0.7,2.3-1,3.5-0.9h0.8h0.9h0.4
		c-0.4,1.1-0.6,2.4-0.5,3.6v1.2c0,1,0.1,2,0.3,3c0,0.3,0.1,0.5,0.2,0.8c0.1,0.1,0.2,0.2,0.4,0.2c0.2,0,0.5-0.1,0.7-0.2
		c0,0.1,0,0.1,0,0.2c0,0.1-0.1,0.2-0.2,0.3l-0.3,0.2l-1.4,0.8c-0.3-1.2-0.5-2.5-0.6-3.8l-0.4,0.4h-1.9c-0.3,1-0.8,1.8-1.4,2.4
		l1.1,0.1l-0.7,0.6l-2.3-0.1l0.8-0.8h0.6c0.3-0.3,0.5-0.6,0.7-1c0.3-0.8,0.6-1.6,0.8-2.5l0.2-0.6c0.2-0.9,0.6-1.8,1-2.6
		c0.3-0.6,0.8-1,1.3-1.3c-0.6-0.1-1.3-0.2-1.9-0.2c-1.7,0-2.5,0.7-2.5,2.1C-73.9,24.1-73.8,24.6-73.6,25z M-69.2,26.6
		c0-0.8-0.1-1.6-0.1-2v-1.4c0-0.4,0.1-0.9,0.1-1.3c-0.9,0.8-1.5,2-1.8,3.5c-0.1,0.5-0.2,0.8-0.2,0.9l-0.2,0.3H-69.2z"/>
	<path class="st10" d="M-62.3,30.3l-0.8,0.4v-1.3l0.3-3.2v-0.9c0-0.5-0.1-0.7-0.3-0.7c-0.5,0.2-0.8,0.7-1.1,1.4
		c-0.4,0.8-0.6,1.7-0.7,2.6l-0.1,1.7l-0.8,0.4v-1.3l0.3-3.4v-0.4c0-0.2,0-0.5,0-0.7c0-0.3,0-0.5-0.2-0.5c-0.2,0-0.5,0.4-0.8,1.2
		c-0.1,0.1-0.1,0-0.1-0.1c0.1-0.5,0.3-0.9,0.6-1.2c0.2-0.4,0.6-0.7,0.9-0.8c0.3,0,0.4,0.3,0.4,0.8c0,0.2,0,0.4,0,0.5v1.1v0.5
		l0.2-0.3c0.8-1.8,1.5-2.6,2.1-2.6c0.3,0,0.5,0.3,0.5,1v0.7v0.7l-0.1,0.9c0.3-0.9,0.6-1.7,1-2.3c0.3-0.5,0.7-0.9,1.2-1
		c0.3,0,0.5,0.3,0.5,0.9c0,0.3,0,0.6,0,1l-0.3,2.7c0,0.4-0.1,0.9-0.1,1.3c0,0.3,0,0.4,0.2,0.4c0.2-0.1,0.3-0.2,0.4-0.4
		c0.2-0.3,0.3-0.6,0.4-0.9c0.1,0.1,0.1,0.2,0.1,0.3c-0.1,0.5-0.3,0.9-0.6,1.2c-0.2,0.4-0.6,0.7-0.9,0.8c-0.3,0-0.4-0.3-0.4-0.8
		s0-1.1,0.1-1.6l0.2-1.8v-1.4c0-0.4-0.1-0.6-0.3-0.6c-0.5,0.2-0.9,0.7-1.1,1.4c-0.4,0.8-0.6,1.7-0.7,2.6L-62.3,30.3z"/>
	<path class="st11" d="M-55.1,27.5c-0.3,0.9-0.8,1.7-1.3,2.4c-0.3,0.5-0.7,0.8-1.2,0.9c-0.5,0-0.7-0.6-0.7-1.7
		c0-3.2,1.5-5.7,3.4-5.8c0.3,0,0.6,0.1,0.9,0.2v0.2l-0.1,0.4c0,0.2,0,0.3-0.1,0.5l-0.3,3.4v0.5c0,0.3-0.1,0.6-0.1,1
		c0,0.2,0,0.3,0.1,0.3c0.3,0,0.6-0.5,0.9-1.4c0.1,0,0.1,0.2,0.1,0.2s-0.1,0.5-0.4,1.1s-0.7,1-1.1,1.1c-0.2,0-0.4-0.2-0.4-0.7v-0.7
		v-0.6l0.1-0.7L-55.1,27.5z M-54.8,24.4c-0.3-0.3-0.6-0.4-0.9-0.4c-0.5,0-1,0.5-1.2,1.3c-0.3,1-0.5,2.1-0.5,3.3c0,0.7,0.1,1,0.4,1
		c0.4-0.1,0.8-0.5,1.1-1.1c0.6-0.9,0.9-2,1.1-3.2V24.4z"/>
	<path class="st12" d="M-53.3,30.7l0.4-1.1c0.2-0.3,0.4-0.6,0.6-0.9l0.3-0.6l0.2-0.4l0.2-0.4l0.3-0.7l0.5-0.8l0.4-0.7l0.1-0.2h-0.1
		c-0.3,0-0.6-0.1-0.9-0.3h-0.2l-0.1-0.1c-0.1,0-0.2,0-0.2,0c-0.2,0-0.3,0.1-0.4,0.4l0,0V25c0,0.1,0,0.3,0.1,0.4l-0.6,0.7v-0.3
		c0-0.6,0.1-1.2,0.4-1.6c0.2-0.4,0.6-0.6,0.9-0.6h0.4h0.3h0.2c0.2,0.1,0.4,0.1,0.6,0.1c0.3,0,0.5-0.1,0.8-0.2l-0.4,1.1
		c-0.2,0.4-0.5,0.8-0.8,1.3l-0.4,0.7l-0.3,0.6l-0.2,0.4l-0.2,0.4l-0.4,0.6l-0.2,0.5l-0.2,0.3h0.5c0.2,0,0.5,0,0.7,0.1h1
		c0.3,0,0.5-0.1,0.7-0.4c0.1,0.1,0.1,0.1,0.1,0.2c0,0.3-0.1,0.6-0.3,0.7c-0.2,0.2-0.4,0.3-0.6,0.3h-1.7
		C-52.4,30.4-52.8,30.5-53.3,30.7z"/>
	<path class="st13" d="M-47.5,30.8c-0.8,0-1.2-0.7-1.2-2.2c0-1.3,0.4-2.5,0.9-3.4c0.4-0.9,1.1-1.5,1.8-1.6c0.8,0,1.2,0.7,1.2,2.2
		c0,1.3-0.4,2.5-0.9,3.4C-46.1,30.1-46.8,30.7-47.5,30.8z M-46.9,29.9c0.4,0,0.8-0.4,1-1c0.3-0.7,0.4-1.5,0.4-2.3
		c0-1.6-0.3-2.3-1-2.3c-0.4,0.1-0.7,0.4-0.9,1c-0.3,0.7-0.4,1.5-0.4,2.4C-47.9,29.2-47.6,29.9-46.9,29.9L-46.9,29.9z"/>
	<path class="st14" d="M-42.8,30.3l-0.8,0.5v-1.3l0.2-3.4V25c0-0.2,0-0.5-0.2-0.5c-0.4,0.2-0.6,0.7-0.8,1.2
		c-0.1-0.1-0.1-0.2-0.1-0.2c0.1-0.5,0.3-0.9,0.6-1.2c0.2-0.4,0.6-0.7,0.9-0.8c0.3,0,0.4,0.3,0.4,0.8v2.1c0.4-0.8,0.8-1.5,1.3-2.1
		c0.3-0.5,0.8-0.8,1.2-0.9c0.3,0,0.5,0.3,0.5,1c0,0.3,0,0.6-0.1,0.9L-40,28c0,0.4-0.1,0.9-0.1,1.3c0,0.2,0,0.4,0.2,0.4
		c0.4-0.3,0.7-0.8,0.9-1.3c0.1,0,0.1,0.2,0.1,0.2c0,0.3-0.2,0.7-0.6,1.2c-0.3,0.4-0.6,0.7-0.9,0.8c-0.3,0-0.4-0.3-0.4-0.8
		s0-1.1,0.1-1.6l0.2-1.8c0.1-0.5,0.1-0.9,0.1-1.4c0-0.4-0.1-0.6-0.3-0.6c-0.5,0.1-1,0.6-1.3,1.3c-0.3,0.9-0.6,1.8-0.6,2.8
		L-42.8,30.3z"/>
	<path class="st15" d="M-35.3,28.2c0.1,0.1,0.1,0.2,0.1,0.3c0,0.2-0.1,0.4-0.3,0.8c-0.4,0.9-1,1.4-1.7,1.5c-0.3,0-0.6-0.2-0.9-0.6
		c-0.2-0.5-0.4-1.1-0.3-1.7c0-1.3,0.4-2.6,0.9-3.5c0.4-1,1-1.6,1.7-1.7c0.4,0,0.6,0.3,0.6,1c0,0.9-0.3,1.7-0.7,2.2
		c-0.5,0.7-1.1,1.2-1.8,1.5c0.1,1.2,0.4,1.8,0.9,1.8C-36.1,29.8-35.5,29.1-35.3,28.2z M-37.6,27.1h0.3c0.4,0,0.8-0.2,1.1-0.6
		c0.3-0.3,0.5-0.8,0.5-1.4c0-0.6-0.2-0.9-0.6-0.9c-0.3,0-0.6,0.3-0.8,0.8C-37.4,25.6-37.5,26.3-37.6,27.1L-37.6,27.1z"/>
	<path class="st16" d="M-34.8,30.4l0.7-0.8c0.3,0.4,0.6,0.6,1,0.6c0.5,0,0.7-0.3,0.7-1c0-0.4-0.2-0.9-0.7-1.6l-0.3-0.4
		c-0.4-0.7-0.6-1.2-0.6-1.6c0-0.6,0.2-1.2,0.5-1.5c0.4-0.4,0.8-0.6,1.3-0.6c0.3,0,0.6,0.1,0.9,0.2l-0.6,0.8
		c-0.3-0.3-0.6-0.4-0.9-0.4c-0.4,0-0.6,0.2-0.6,0.7s0.2,0.8,0.6,1.4l0.3,0.5c0.5,0.7,0.7,1.3,0.7,1.7c0,0.7-0.3,1.3-0.6,1.6
		C-33.1,30.9-34.1,31-34.8,30.4L-34.8,30.4z"/>
	<rect x="-87.8" y="22.7" class="st5" width="58" height="10.1"/>
</g>
<g id="Calque_2">
	
		<ellipse transform="matrix(3.437619e-03 -1 1 3.437619e-03 -51.2509 73.1832)" class="st17" cx="11.1" cy="62.3" rx="1.4" ry="3.6"/>
	
		<ellipse transform="matrix(3.437632e-03 -1 1 3.437632e-03 -41.6182 78.0029)" class="st17" cx="18.3" cy="59.9" rx="1.3" ry="3.5"/>
	
		<ellipse transform="matrix(2.618948e-02 -0.9997 0.9997 2.618948e-02 -34.437 73.9758)" class="st18" cx="20.8" cy="54.7" rx="1.9" ry="2.4"/>
	
		<ellipse transform="matrix(3.437633e-03 -1 1 3.437633e-03 -12.3023 86.3778)" class="st17" cx="37.2" cy="49.4" rx="1.4" ry="3.6"/>
	<ellipse transform="matrix(3.437675e-03 -1 1 3.437675e-03 -3.0713 84.1525)" class="st17" cx="40.7" cy="43.6" rx="2" ry="3"/>
	<ellipse transform="matrix(0.1389 -0.9903 0.9903 0.1389 5.4647 72.0889)" class="st17" cx="44.2" cy="32.9" rx="1.9" ry="3.3"/>
	<ellipse transform="matrix(3.437751e-03 -1 1 3.437751e-03 18.3081 69.3717)" class="st17" cx="44" cy="25.5" rx="1.8" ry="2.2"/>
	
		<ellipse transform="matrix(3.437679e-03 -1 1 3.437679e-03 17.5305 63.4076)" class="st17" cx="40.6" cy="22.9" rx="2.4" ry="3.6"/>
	
		<ellipse transform="matrix(3.437644e-03 -1 1 3.437644e-03 -2.3812 44.4845)" class="st17" cx="21.1" cy="23.4" rx="2.4" ry="4.8"/>
	<ellipse transform="matrix(0.9822 -0.1878 0.1878 0.9822 -5.5584 3.9339)" class="st17" cx="18" cy="31.3" rx="4.5" ry="2.4"/>
	
		<ellipse transform="matrix(3.437662e-03 -1 1 3.437662e-03 -14.7059 58.9865)" class="st17" cx="22.2" cy="36.9" rx="2.1" ry="3.4"/>
	
		<ellipse transform="matrix(3.437646e-03 -1 1 3.437646e-03 -7.8766 81.8203)" class="st17" cx="37.1" cy="44.9" rx="1.5" ry="2.9"/>
	
		<ellipse transform="matrix(3.437649e-03 -1 1 3.437649e-03 -15.906 97.2098)" class="st17" cx="40.8" cy="56.6" rx="1.9" ry="3.5"/>
	
		<ellipse transform="matrix(3.437671e-03 -1 1 3.437671e-03 -14.506 108.5829)" class="st17" cx="47.2" cy="61.6" rx="2.1" ry="3.3"/>
	
		<ellipse transform="matrix(3.437669e-03 -1 1 3.437669e-03 -20.0666 67.0821)" class="st17" cx="23.6" cy="43.6" rx="2.3" ry="3.7"/>
	
		<ellipse transform="matrix(3.437654e-03 -1 1 3.437654e-03 -16.7336 78.7138)" class="st17" cx="31.1" cy="47.8" rx="1.9" ry="3.3"/>
	
		<ellipse transform="matrix(3.437767e-03 -1 1 3.437767e-03 14.9582 54.4352)" class="st17" cx="34.8" cy="19.7" rx="2.4" ry="3.9"/>
	
		<ellipse transform="matrix(3.437665e-03 -1 1 3.437665e-03 -48.3736 71.5758)" class="st18" cx="11.7" cy="60.1" rx="2.3" ry="3.7"/>
	
		<ellipse transform="matrix(3.437643e-03 -1 1 3.437643e-03 -44.6063 79.3655)" class="st19" cx="17.5" cy="62.1" rx="1.9" ry="3.9"/>
	
		<ellipse transform="matrix(3.437644e-03 -1 1 3.437644e-03 -40.7791 73.2739)" class="st19" cx="16.4" cy="57.1" rx="1.6" ry="3.2"/>
	
		<ellipse transform="matrix(8.604157e-02 -0.9963 0.9963 8.604157e-02 -27.4679 70.0144)" class="st18" cx="24.4" cy="50" rx="2.4" ry="3"/>
	
		<ellipse transform="matrix(3.437638e-03 -1 1 3.437638e-03 -22.9774 77.4509)" class="st18" cx="27.4" cy="50.3" rx="1.7" ry="3.7"/>
	
		<ellipse transform="matrix(3.437736e-03 -1 1 3.437736e-03 -29.4196 77.9793)" class="st19" cx="24.4" cy="53.8" rx="2.5" ry="3.2"/>
	<ellipse transform="matrix(3.437662e-03 -1 1 3.437662e-03 -10.2638 90.0307)" class="st18" cx="40" cy="50.2" rx="1.5" ry="2.4"/>
	<ellipse transform="matrix(3.437655e-03 -1 1 3.437655e-03 0.536 81.291)" class="st18" cx="41.1" cy="40.4" rx="1.7" ry="3"/>
	<ellipse transform="matrix(3.437665e-03 -1 1 3.437665e-03 -12.5725 76.5446)" class="st19" cx="32.1" cy="44.6" rx="2" ry="3.2"/>
	
		<ellipse transform="matrix(3.437668e-03 -1 1 3.437668e-03 -10.4886 82.6335)" class="st18" cx="36.2" cy="46.6" rx="1.9" ry="2.9"/>
	
		<ellipse transform="matrix(3.437641e-03 -1 1 3.437641e-03 -10.9023 97.7508)" class="st19" cx="43.6" cy="54.3" rx="1.3" ry="2.7"/>
	
		<ellipse transform="matrix(3.437768e-03 -1 1 3.437768e-03 -10.2397 94.4369)" class="st18" cx="42.3" cy="52.4" rx="2.1" ry="2.6"/>
	
		<ellipse transform="matrix(3.437699e-03 -1 1 3.437699e-03 -13.8663 103.5196)" class="st19" cx="45" cy="58.7" rx="2.2" ry="3.1"/>
	
		<ellipse transform="matrix(3.437654e-03 -1 1 3.437654e-03 -11.9784 116.7135)" class="st19" cx="52.6" cy="64.4" rx="2.3" ry="4.1"/>
	<ellipse transform="matrix(0.2284 -0.9736 0.9736 0.2284 -18.4524 89.2441)" class="st18" cx="47.1" cy="56.3" rx="2.2" ry="3"/>
	
		<ellipse transform="matrix(3.437651e-03 -1 1 3.437651e-03 -8.5602 87.6358)" class="st19" cx="39.7" cy="48.1" rx="1.9" ry="3.4"/>
	
		<ellipse transform="matrix(3.437671e-03 -1 1 3.437671e-03 -20.4994 74.1123)" class="st19" cx="26.9" cy="47.3" rx="2.1" ry="3.3"/>
	<ellipse transform="matrix(3.437651e-03 -1 1 3.437651e-03 2.4192 84.3888)" class="st19" cx="43.5" cy="41" rx="1.7" ry="3"/>
	<ellipse transform="matrix(3.437669e-03 -1 1 3.437669e-03 -19.5753 61.5023)" class="st19" cx="21.1" cy="40.6" rx="2" ry="3.1"/>
	
		<ellipse transform="matrix(3.437669e-03 -1 1 3.437669e-03 -20.3966 56.8218)" class="st18" cx="18.3" cy="38.6" rx="2.3" ry="3.7"/>
	
		<ellipse transform="matrix(3.437660e-03 -1 1 3.437660e-03 13.6105 60.3764)" class="st18" cx="37.1" cy="23.4" rx="2.1" ry="3.6"/>
	
		<ellipse transform="matrix(3.437664e-03 -1 1 3.437664e-03 -17.6316 51.7815)" class="st19" cx="17.2" cy="34.7" rx="2.2" ry="3.7"/>
	
		<ellipse transform="matrix(3.437606e-03 -1 1 3.437606e-03 -9.4211 45.0729)" class="st18" cx="17.9" cy="27.3" rx="2.5" ry="3.4"/>
	<ellipse transform="matrix(3.437642e-03 -1 1 3.437642e-03 0.5218 50.4715)" class="st19" cx="25.6" cy="25" rx="1.7" ry="3.6"/>
	<ellipse transform="matrix(3.437648e-03 -1 1 3.437648e-03 6.0985 45.4836)" class="st19" cx="25.9" cy="19.7" rx="2.4" ry="4.6"/>
	<ellipse transform="matrix(3.437714e-03 -1 1 3.437714e-03 8.1826 52.1039)" class="st18" cx="30.2" cy="21.9" rx="2.2" ry="4.4"/>
	
		<ellipse transform="matrix(3.437747e-03 -1 1 3.437747e-03 18.4362 59.1443)" class="st19" cx="38.9" cy="20.3" rx="1.9" ry="2.4"/>
	<ellipse transform="matrix(3.437660e-03 -1 1 3.437660e-03 0.7634 46.3339)" class="st18" cx="23.6" cy="22.8" rx="1.6" ry="2.7"/>
	
		<ellipse transform="matrix(3.437680e-03 -1 1 3.437680e-03 13.2378 68.3651)" class="st19" cx="40.9" cy="27.5" rx="1.9" ry="2.9"/>
	<ellipse transform="matrix(3.437898e-03 -1 1 3.437898e-03 16.9999 64.996)" class="st19" cx="41.1" cy="24" rx="1.6" ry="1.8"/>
	
		<ellipse transform="matrix(3.437655e-03 -1 1 3.437655e-03 15.3446 76.2033)" class="st19" cx="45.9" cy="30.4" rx="2.2" ry="3.8"/>
	<ellipse transform="matrix(3.437669e-03 -1 1 3.437669e-03 10.4276 71.5008)" class="st18" cx="41.1" cy="30.5" rx="1.9" ry="3"/>
	<ellipse transform="matrix(3.437744e-03 -1 1 3.437744e-03 10.742 81.1131)" class="st18" cx="46.1" cy="35.2" rx="2.1" ry="2.6"/>
	<ellipse transform="matrix(3.437726e-03 -1 1 3.437726e-03 6.2894 75.4194)" class="st19" cx="41" cy="34.6" rx="1.9" ry="2.4"/>
	<ellipse transform="matrix(3.437665e-03 -1 1 3.437665e-03 -14.8472 88.7194)" class="st19" cx="37.1" cy="51.8" rx="2" ry="3.2"/>
	<ellipse transform="matrix(3.437651e-03 -1 1 3.437651e-03 -49.6764 78.8902)" class="st18" cx="14.7" cy="64.4" rx="2.2" ry="4"/>
	
		<ellipse transform="matrix(0.9998 -1.795832e-02 1.795832e-02 0.9998 -1.0986 0.9814)" class="st18" cx="54.1" cy="61.7" rx="3.5" ry="2.5"/>
	
		<ellipse transform="matrix(3.437693e-03 -1 1 3.437693e-03 -4.7928 47.7575)" class="st20" cx="21.6" cy="26.3" rx="1.7" ry="3.3"/>
	<ellipse transform="matrix(3.437651e-03 -1 1 3.437651e-03 16.8037 71.5695)" class="st20" cx="44.3" cy="27.4" rx="2.2" ry="4"/>
	
		<ellipse transform="matrix(3.437662e-03 -1 1 3.437662e-03 -8.8157 109.6848)" class="st20" cx="50.6" cy="59.3" rx="1.7" ry="2.9"/>
	<ellipse transform="matrix(3.437660e-03 -1 1 3.437660e-03 5.8047 80.5064)" class="st20" cx="43.3" cy="37.3" rx="2.4" ry="4"/>
	<ellipse transform="matrix(3.437655e-03 -1 1 3.437655e-03 -7.3906 79.3901)" class="st20" cx="36.1" cy="43.4" rx="1.7" ry="3"/>
	
		<ellipse transform="matrix(3.437650e-03 -1 1 3.437650e-03 11.0807 47.4635)" class="st20" cx="29.4" cy="18.2" rx="2.5" ry="4.6"/>
	<ellipse transform="matrix(0.9872 -0.1596 0.1596 0.9872 -4.9997 3.8197)" class="st20" cx="21.3" cy="33" rx="3.9" ry="2"/>
	
		<ellipse transform="matrix(0.9981 -6.219395e-02 6.219395e-02 0.9981 -3.5587 1.4909)" class="st20" cx="22.2" cy="57.9" rx="3.4" ry="2.1"/>
	
		<ellipse transform="matrix(3.437585e-03 -1 1 3.437585e-03 -11.4508 40.7445)" class="st21" cx="14.7" cy="26.1" rx="0.8" ry="1.3"/>
	
		<ellipse transform="matrix(3.437585e-03 -1 1 3.437585e-03 -12.6838 36.274)" class="st22" cx="11.9" cy="24.5" rx="0.8" ry="1.2"/>
	
		<ellipse transform="matrix(3.437585e-03 -1 1 3.437585e-03 -10.847 45.6252)" class="st22" cx="17.5" cy="28.3" rx="0.6" ry="0.9"/>
	
		<ellipse transform="matrix(3.437665e-03 -1 1 3.437665e-03 -14.4154 112.9234)" class="st18" cx="49.4" cy="63.7" rx="2" ry="3.2"/>
	<path class="st23" d="M33.4,49.9l0.7-0.6c0.2,0.1,0.4,0.1,0.6,0.1c0.4-0.1,0.6-0.3,0.7-0.7c0.2-0.5,0.3-1,0.2-1.5l0-0.7
		c0-0.9,0.3-1.7,0.9-2.2c0.4-0.4,1.1-0.7,1.7-0.7c0.3,0,0.5,0.1,0.7,0.2l-0.7,0.7c-0.3-0.2-0.5-0.3-0.8-0.3c-0.6,0-1,0.6-1,1.7
		l0,0.7c0,0.7-0.1,1.3-0.3,2c-0.2,0.5-0.5,0.8-0.9,1l0.9,0.1l1.3,0c0.6,0.1,1.2-0.2,1.8-0.7c0,0.1,0.1,0.1,0.1,0.1
		c-0.1,0.2-0.3,0.4-0.4,0.5c-0.4,0.4-1,0.6-1.6,0.7l-0.8,0l-1.2-0.2C34.7,50.1,34.1,50,33.4,49.9z"/>
	<path class="st24" d="M42.6,48.6c0.1,0,0.1,0.1,0.1,0.2c0,0.1-0.1,0.3-0.3,0.5c-0.4,0.5-0.9,0.9-1.5,0.9c-0.3,0-0.5-0.1-0.7-0.4
		c-0.2-0.3-0.4-0.7-0.3-1.1c0-0.8,0.3-1.6,0.8-2.2c0.4-0.6,0.9-1,1.5-1.1c0.4,0,0.5,0.2,0.5,0.6c0,0.5-0.3,1.1-0.6,1.3
		c-0.4,0.5-1,0.8-1.6,0.9c0.1,0.7,0.4,1.1,0.8,1.1C41.9,49.6,42.5,49.2,42.6,48.6z M40.6,47.9l0.3,0c0.4,0,0.7-0.1,1-0.3
		c0.3-0.2,0.4-0.5,0.4-0.9c0-0.3-0.2-0.5-0.5-0.5c-0.3,0-0.5,0.2-0.7,0.5C40.8,47,40.6,47.5,40.6,47.9z"/>
	<path class="st25" d="M43.1,49.9l0.6-0.5c0.3,0.3,0.5,0.4,0.9,0.4c0.4,0,0.6-0.2,0.6-0.7c0-0.3-0.2-0.6-0.6-1.1l-0.3-0.3
		c-0.4-0.4-0.5-0.8-0.5-1.1c0-0.4,0.2-0.7,0.4-0.9c0.4-0.2,0.7-0.3,1.2-0.3c0.3,0,0.5,0.1,0.8,0.1l-0.5,0.5
		c-0.3-0.2-0.5-0.3-0.8-0.3c-0.4,0-0.5,0.1-0.5,0.5c0,0.3,0.2,0.5,0.5,0.9l0.3,0.3c0.4,0.5,0.6,0.8,0.6,1.1c0,0.5-0.3,0.8-0.5,1.1
		C44.7,50.3,43.8,50.4,43.1,49.9L43.1,49.9z"/>
	<path class="st26" d="M49.6,46.4l-0.8,0.7c-0.2-0.3-0.2-0.7-0.2-1.1c0-0.8,0.5-1.5,1.1-1.8c1-0.5,2.1-0.7,3.1-0.6l0.7,0l0.8,0
		l0.4,0c-0.4,0.7-0.5,1.6-0.5,2.4l0,0.8c0,0.7,0.1,1.3,0.3,2c0,0.2,0.1,0.3,0.2,0.5c0.1,0.1,0.2,0.1,0.4,0.1s0.4-0.1,0.6-0.1
		c0,0.1,0,0.1,0,0.1c0,0.1-0.1,0.1-0.2,0.2l-0.3,0.1L54,50.3c-0.3-0.8-0.4-1.7-0.5-2.5l-0.4,0.3l-1.7,0c-0.3,0.7-0.7,1.2-1.3,1.6
		l1,0.1l-0.6,0.4l-2.1-0.1l0.7-0.5l0.5,0c0.3-0.2,0.4-0.4,0.6-0.7c0.3-0.5,0.5-1.1,0.7-1.7l0.2-0.4c0.2-0.6,0.5-1.2,0.9-1.7
		c0.3-0.4,0.7-0.7,1.2-0.9c-0.5-0.1-1.2-0.1-1.7-0.1c-1.5,0-2.2,0.5-2.2,1.4C49.3,45.8,49.4,46.2,49.6,46.4z M53.5,47.5
		c0-0.5-0.1-1.1-0.1-1.3l0-0.9c0-0.3,0.1-0.6,0.1-0.9c-0.8,0.5-1.3,1.3-1.6,2.3c-0.1,0.3-0.2,0.5-0.2,0.6l-0.2,0.2L53.5,47.5z"/>
	<path class="st27" d="M59.7,50L59,50.2l0-0.9l0.3-2.1l0-0.6c0-0.3-0.1-0.5-0.3-0.5c-0.4,0.1-0.7,0.5-1,0.9
		c-0.4,0.5-0.5,1.1-0.6,1.7L57.3,50l-0.7,0.3l0-0.9l0.3-2.2l0-0.3c0-0.1,0-0.3,0-0.5c0-0.2,0-0.3-0.2-0.3c-0.2,0-0.4,0.3-0.7,0.8
		c-0.1,0.1-0.1,0-0.1-0.1c0.1-0.3,0.3-0.6,0.5-0.8c0.2-0.3,0.5-0.5,0.8-0.5c0.3,0,0.4,0.2,0.4,0.5c0,0.1,0,0.3,0,0.3l0,0.7l0,0.3
		l0.2-0.2c0.7-1.2,1.3-1.7,1.9-1.7c0.3,0,0.4,0.2,0.4,0.7l0,0.5l0,0.5l-0.1,0.6c0.3-0.6,0.5-1.1,0.9-1.5c0.3-0.3,0.6-0.6,1.1-0.7
		c0.3,0,0.4,0.2,0.4,0.6c0,0.2,0,0.4,0,0.7l-0.3,1.8c0,0.3-0.1,0.6-0.1,0.9c0,0.2,0,0.3,0.2,0.3c0.2-0.1,0.3-0.1,0.4-0.3
		c0.2-0.2,0.3-0.4,0.4-0.6C63,48.9,63,48.9,63,49c-0.1,0.3-0.3,0.6-0.5,0.8c-0.2,0.3-0.5,0.5-0.8,0.5c-0.3,0-0.4-0.2-0.4-0.5
		s0-0.7,0.1-1.1l0.2-1.2l0-0.9c0-0.3-0.1-0.4-0.3-0.4c-0.4,0.1-0.8,0.5-1,0.9c-0.4,0.5-0.5,1.1-0.6,1.7L59.7,50z"/>
	<path class="st28" d="M66.1,48.1c-0.3,0.6-0.7,1.1-1.2,1.6c-0.3,0.3-0.6,0.5-1.1,0.6c-0.4,0-0.6-0.4-0.6-1.1c0-2.1,1.4-3.8,3-3.8
		c0.3,0,0.5,0.1,0.8,0.1l0,0.1L67,45.9c0,0.1,0,0.2-0.1,0.3l-0.3,2.2l0,0.3c0,0.2-0.1,0.4-0.1,0.7c0,0.1,0,0.2,0.1,0.2
		c0.3,0,0.5-0.3,0.8-0.9c0.1,0,0.1,0.1,0.1,0.1s-0.1,0.3-0.4,0.7s-0.6,0.7-1,0.7c-0.2,0-0.4-0.1-0.4-0.5l0-0.5l0-0.4l0.1-0.5
		L66.1,48.1z M66.4,46.1c-0.3-0.2-0.5-0.3-0.8-0.3c-0.4,0-0.9,0.3-1.1,0.9c-0.3,0.7-0.5,1.4-0.5,2.2c0,0.5,0.1,0.7,0.4,0.7
		c0.4-0.1,0.7-0.3,1-0.7c0.5-0.6,0.8-1.3,1-2.1L66.4,46.1z"/>
	<path class="st29" d="M67.7,50.3l0.4-0.7c0.2-0.2,0.4-0.4,0.5-0.6l0.3-0.4l0.2-0.3l0.2-0.3l0.3-0.5l0.4-0.5l0.4-0.5l0.1-0.1l-0.1,0
		c-0.3,0-0.5-0.1-0.8-0.2l-0.2,0l-0.1-0.1c-0.1,0-0.2,0-0.2,0c-0.2,0-0.3,0.1-0.4,0.3l0,0l0,0.1c0,0.1,0,0.2,0.1,0.3l-0.5,0.5l0-0.2
		c0-0.4,0.1-0.8,0.4-1.1c0.2-0.3,0.5-0.4,0.8-0.4l0.4,0l0.3,0l0.2,0c0.2,0.1,0.4,0.1,0.5,0.1c0.3,0,0.4-0.1,0.7-0.1l-0.4,0.7
		c-0.2,0.3-0.4,0.5-0.7,0.9L70,47.6L69.8,48l-0.2,0.3l-0.2,0.3L69,48.9l-0.2,0.3l-0.2,0.2l0.4,0c0.2,0,0.4,0,0.6,0.1l0.9,0
		c0.3,0,0.4-0.1,0.6-0.3c0.1,0.1,0.1,0.1,0.1,0.1c0,0.2-0.1,0.4-0.3,0.5c-0.2,0.1-0.4,0.2-0.5,0.2L69,50
		C68.5,50.1,68.1,50.1,67.7,50.3z"/>
	<path class="st30" d="M72.9,50.3c-0.7,0-1.1-0.5-1.1-1.5c0-0.9,0.4-1.7,0.8-2.2c0.4-0.6,1-1,1.6-1.1c0.7,0,1.1,0.5,1.1,1.5
		c0,0.9-0.4,1.7-0.8,2.2C74.1,49.9,73.5,50.3,72.9,50.3z M73.4,49.8c0.4,0,0.7-0.3,0.9-0.7c0.3-0.5,0.4-1,0.4-1.5
		c0-1.1-0.3-1.5-0.9-1.5c-0.4,0.1-0.6,0.3-0.8,0.7c-0.3,0.5-0.4,1-0.4,1.6C72.5,49.3,72.8,49.7,73.4,49.8L73.4,49.8z"/>
	<path class="st31" d="M77.1,50l-0.7,0.3l0-0.9l0.2-2.2l0-0.7c0-0.1,0-0.3-0.2-0.3c-0.4,0.1-0.5,0.5-0.7,0.8
		c-0.1-0.1-0.1-0.1-0.1-0.1c0.1-0.3,0.3-0.6,0.5-0.8c0.2-0.3,0.5-0.5,0.8-0.5c0.3,0,0.4,0.2,0.4,0.5l0,1.4c0.4-0.5,0.7-1,1.2-1.4
		c0.3-0.3,0.7-0.5,1.1-0.6c0.3,0,0.4,0.2,0.4,0.7c0,0.2,0,0.4-0.1,0.6l-0.3,1.8c0,0.3-0.1,0.6-0.1,0.9c0,0.1,0,0.3,0.2,0.3
		c0.4-0.2,0.6-0.5,0.8-0.9c0.1,0,0.1,0.1,0.1,0.1c0,0.2-0.2,0.5-0.5,0.8c-0.3,0.3-0.5,0.5-0.8,0.5c-0.3,0-0.4-0.2-0.4-0.5
		c0-0.3,0-0.7,0.1-1.1l0.2-1.2c0.1-0.3,0.1-0.6,0.1-0.9c0-0.3-0.1-0.4-0.3-0.4c-0.4,0.1-0.9,0.4-1.2,0.9c-0.3,0.6-0.5,1.2-0.5,1.9
		L77.1,50z"/>
	<path class="st32" d="M83.8,48.7c0.1,0.1,0.1,0.1,0.1,0.2c0,0.1-0.1,0.3-0.3,0.5c-0.4,0.6-0.9,0.9-1.5,1c-0.3,0-0.5-0.1-0.8-0.4
		c-0.2-0.3-0.4-0.7-0.3-1.1c0-0.9,0.4-1.7,0.8-2.3c0.4-0.7,0.9-1.1,1.5-1.1c0.4,0,0.5,0.2,0.5,0.7c0,0.6-0.3,1.1-0.6,1.5
		c-0.4,0.5-1,0.8-1.6,1c0.1,0.8,0.4,1.2,0.8,1.2C83,49.7,83.6,49.3,83.8,48.7z M81.7,47.9l0.3,0c0.4,0,0.7-0.1,1-0.4
		c0.3-0.2,0.4-0.5,0.4-0.9c0-0.4-0.2-0.6-0.5-0.6c-0.3,0-0.5,0.2-0.7,0.5C81.9,46.9,81.8,47.4,81.7,47.9L81.7,47.9z"/>
	<path class="st33" d="M84.2,50.1l0.6-0.5c0.3,0.3,0.5,0.4,0.9,0.4c0.4,0,0.6-0.2,0.6-0.7c0-0.3-0.2-0.6-0.6-1.1L85.5,48
		c-0.4-0.5-0.5-0.8-0.5-1.1c0-0.4,0.2-0.8,0.4-1c0.4-0.3,0.7-0.4,1.2-0.4c0.3,0,0.5,0.1,0.8,0.1l-0.5,0.5C86.5,46,86.3,46,86,46
		c-0.4,0-0.5,0.1-0.5,0.5s0.2,0.5,0.5,0.9l0.3,0.3c0.4,0.5,0.6,0.9,0.6,1.1c0,0.5-0.3,0.9-0.5,1.1C85.7,50.5,84.8,50.5,84.2,50.1
		L84.2,50.1z"/>
	
		<rect x="59.5" y="22.4" transform="matrix(3.437620e-03 -1 1 3.437620e-03 14.2869 110.9189)" class="st34" width="6.7" height="51.7"/>
	<rect x="37.5" y="51.8" class="st22" width="15.3" height="15.3"/>
	<rect x="70.8" y="51.6" class="st35" width="15.6" height="15.6"/>
	<rect x="6.4" y="51.7" class="st36" width="15.4" height="15.4"/>
	<text transform="matrix(1.0001 3.437804e-03 -3.437585e-03 1 4.302 7.8765)" class="st0 st37 st38">Logo:</text>
	<text transform="matrix(1 0 0 1 2.1673 42.3517)" class="st0 st37 st39">Nuances:</text>
	
		<rect x="-4.1" y="25.5" transform="matrix(3.437585e-03 -1 1 3.437585e-03 -38.6559 36.6301)" class="st34" width="6.4" height="24.4"/>
	<g class="st0">
	</g>
	<text transform="matrix(1 0 0 1 47.7159 7.8764)" class="st0 st37 st39">Police:</text>
	<g class="st0">
	</g>
	<text transform="matrix(1 0 0 1 47.716 14.5747)" class="st0 st37 st39">#</text>
	<g class="st0">
	</g>
	<g class="st0">
	</g>
	<g class="st0">
	</g>
	<g class="st0">
	</g>
	<g class="st0">
	</g>
	<g class="st0">
	</g>
	<text transform="matrix(1 -6.133111e-04 6.133111e-04 1 54.0318 14.5747)" class="st0 st37 st39">Appel chancery</text>
	<g class="st0">
	</g>
	<g class="st0">
	</g>
	<g class="st0">
	</g>
	<g class="st0">
	</g>
	<text transform="matrix(1 0 0 1 46.7 42.3517)" class="st0 st37 st39">Couleur:#</text>
	<text transform="matrix(1 0 0 1 72.0162 42.3517)" class="st0 st37 st39">4c4b4b</text>
</g>
</svg>
