<?xml version="1.0" encoding="utf-8"?>
<!-- Generator: Adobe Illustrator 24.0.1, SVG Export Plug-In . SVG Version: 6.00 Build 0)  -->
<svg version="1.1" id="Capa_1" xmlns="http://www.w3.org/2000/svg" xmlns:xlink="http://www.w3.org/1999/xlink" x="0px" y="0px"
	 viewBox="0 0 512 512" style="enable-background:new 0 0 512 512;" xml:space="preserve">
<style type="text/css">
	.st0{fill:#E8E6ED;}
	.st1{fill:#D1D0D8;}
	.st2{fill:#6897BE;}
	.st3{fill:#06B9FF;}
	.st4{fill:#FFFFFF;}
	.st5{fill:#FCFCFC;}
	.st6{fill:#BDBCC4;}
	.st7{fill:#AAAAB2;}
</style>
<g>
	<g>
		<path class="st0" d="M512,72.6v366.7c0,5.7-4.6,10.3-10.3,10.3H10.3C4.6,449.7,0,445,0,439.4V72.6C0,67,4.6,62.3,10.3,62.3h491.4
			C507.4,62.3,512,67,512,72.6z"/>
		<path class="st1" d="M512,72.6v366.7c0,5.7-4.6,10.3-10.3,10.3H378.3c114-98.7,111.4-328.1,108.8-387.3h14.6
			C507.4,62.3,512,67,512,72.6z"/>
		<path class="st2" d="M512,72.6v54.6H0V72.6C0,67,4.6,62.3,10.3,62.3h491.4C507.4,62.3,512,67,512,72.6z"/>
		<path class="st2" d="M512,72.6v54.6h-24.5c0.8-28.3,0.2-51.2-0.4-64.9h14.6C507.4,62.3,512,67,512,72.6z"/>
		<g>
			<path class="st3" d="M41.3,102.5h-0.1c-4.3,0-7.7-3.5-7.7-7.7s3.5-7.7,7.7-7.7h0.1c4.3,0,7.7,3.5,7.7,7.7
				C49,99.1,45.5,102.5,41.3,102.5z"/>
			<path class="st3" d="M64.6,102.5h-0.1c-4.3,0-7.7-3.5-7.7-7.7s3.5-7.7,7.7-7.7h0.1c4.3,0,7.7,3.5,7.7,7.7
				C72.3,99.1,68.8,102.5,64.6,102.5z"/>
			<path class="st3" d="M87.9,102.5h-0.1c-4.3,0-7.7-3.5-7.7-7.7s3.5-7.7,7.7-7.7h0.1c4.3,0,7.7,3.5,7.7,7.7
				C95.6,99.1,92.2,102.5,87.9,102.5z"/>
			<path class="st3" d="M470.9,102.5h-14.4c-4.3,0-7.7-3.5-7.7-7.7s3.5-7.7,7.7-7.7h14.4c4.3,0,7.7,3.5,7.7,7.7
				C478.6,99.1,475.1,102.5,470.9,102.5z"/>
		</g>
	</g>
	<g>
		<g>
			<path class="st4" d="M230.5,280.6c0,19.5-6.7,37.4-18,51.5C197.3,351,174.1,363,148.1,363S98.8,351,83.7,332.1
				c-11.3-14.1-18-32-18-51.5c0-45.5,36.9-82.4,82.4-82.4S230.5,235.1,230.5,280.6z"/>
			<path class="st5" d="M230.5,280.6c0,19.5-6.7,37.4-18,51.5C197.3,351,174.1,363,148.1,363c-16.6,0-32.2-4.9-45.1-13.4
				c7,1.9,14.4,3,22,3c26,0,49.3-12.1,64.4-30.9c11.3-14.1,18-32,18-51.5c0-28.9-14.8-54.3-37.3-69
				C204.9,210.8,230.5,242.7,230.5,280.6z"/>
			<path class="st1" d="M212.4,332.1C197.3,351,174.1,363,148.1,363c-16.6,0-32.2-4.9-45.1-13.4c-7.3-4.8-13.8-10.7-19.3-17.5
				c9.5-16.5,25-28.9,43.7-34.4c-7.1-5.9-11.6-14.9-11.6-24.8c0-17.9,14.5-32.3,32.3-32.3c17.9,0,32.3,14.5,32.3,32.3
				c0,10-4.5,18.9-11.6,24.8c10.1,2.9,19.3,7.9,27.1,14.5C202.5,317.8,208.1,324.5,212.4,332.1L212.4,332.1z"/>
			<path class="st6" d="M212.4,332.1C197.3,351,174.1,363,148.1,363c-16.6,0-32.2-4.9-45.1-13.4c7,1.9,14.4,3,22,3
				c26,0,49.3-12.1,64.4-30.9c2.4-3,4.6-6.1,6.5-9.4C202.5,317.8,208.1,324.5,212.4,332.1z"/>
		</g>
		<g>
			<g>
				<path class="st2" d="M426.2,265.4H292c-11.1,0-20.1-9-20.1-20.1c0-11.1,9-20.1,20.1-20.1h134.2c11.1,0,20.1,9,20.1,20.1
					S437.3,265.4,426.2,265.4z"/>
				<path class="st2" d="M297.4,208.2h-22.9c-4.3,0-7.7-3.5-7.7-7.7s3.5-7.7,7.7-7.7h22.9c4.3,0,7.7,3.5,7.7,7.7
					S301.7,208.2,297.4,208.2z"/>
			</g>
			<g>
				<path class="st2" d="M426.2,360.8H292c-11.1,0-20.1-9-20.1-20.1c0-11.1,9-20.1,20.1-20.1h134.2c11.1,0,20.1,9,20.1,20.1
					C446.3,351.8,437.3,360.8,426.2,360.8z"/>
				<path class="st2" d="M297.4,303.6h-22.9c-4.3,0-7.7-3.5-7.7-7.7s3.5-7.7,7.7-7.7h22.9c4.3,0,7.7,3.5,7.7,7.7
					C305.1,300.2,301.7,303.6,297.4,303.6z"/>
			</g>
		</g>
	</g>
	<path class="st7" d="M165.2,400.7h-34.3c-4.3,0-7.7-3.5-7.7-7.7s3.5-7.7,7.7-7.7h34.3c4.3,0,7.7,3.5,7.7,7.7
		S169.5,400.7,165.2,400.7L165.2,400.7z"/>
</g>
</svg>
