<?xml version="1.0" encoding="utf-8"?>
<!-- Generator: Adobe Illustrator 24.0.1, SVG Export Plug-In . SVG Version: 6.00 Build 0)  -->
<svg version="1.1" id="Calque_1" xmlns="http://www.w3.org/2000/svg" xmlns:xlink="http://www.w3.org/1999/xlink" x="0px" y="0px"
	 viewBox="0 0 93.4 77" style="enable-background:new 0 0 93.4 77;" xml:space="preserve">
<style type="text/css">
	.st0{display:none;}
	.st1{display:inline;fill:#FFD2E5;}
	.st2{display:inline;fill:#FFC1FF;}
	.st3{display:inline;fill:#CCEEFF;}
	.st4{display:inline;fill:#FFAACC;}
	.st5{display:inline;fill:none;}
	.st6{display:inline;fill:#3F3D3D;stroke:#3F3D3D;stroke-width:0.55;stroke-miterlimit:10;}
	.st7{display:inline;fill:#3F3D3D;stroke:#3F3D3D;stroke-width:0.5596;stroke-miterlimit:10;}
	.st8{display:inline;fill:#3F3D3D;stroke:#3F3D3D;stroke-width:0.57;stroke-miterlimit:10;}
	.st9{display:inline;fill:#3F3D3D;stroke:#3F3D3D;stroke-width:0.5417;stroke-miterlimit:10;}
	.st10{display:inline;fill:#3F3D3D;stroke:#3F3D3D;stroke-width:0.573;stroke-miterlimit:10;}
	.st11{display:inline;fill:#3F3D3D;stroke:#3F3D3D;stroke-width:0.5835;stroke-miterlimit:10;}
	.st12{display:inline;fill:#3F3D3D;stroke:#3F3D3D;stroke-width:0.5753;stroke-miterlimit:10;}
	.st13{display:inline;fill:#3F3D3D;stroke:#3F3D3D;stroke-width:0.575;stroke-miterlimit:10;}
	.st14{display:inline;fill:#3F3D3D;stroke:#3F3D3D;stroke-width:0.5713;stroke-miterlimit:10;}
	.st15{display:inline;fill:#3F3D3D;stroke:#3F3D3D;stroke-width:0.5831;stroke-miterlimit:10;}
	.st16{display:inline;fill:#3F3D3D;stroke:#3F3D3D;stroke-width:0.5848;stroke-miterlimit:10;}
	.st17{fill:#F17979;}
	.st18{fill:#FFD2E5;}
	.st19{fill:#A9A9A9;}
	.st20{fill:#EA86B4;}
	.st21{fill:#EF9A9A;}
	.st22{fill:#D8BDBD;}
	.st23{fill:#F1F1F1;}
	.st24{fill:#C49186;}
	.st25{display:none;fill:none;}
	.st26{display:none;fill:#FFAACC;}
	.st27{fill:none;}
	.st28{display:none;fill:#CCEEFF;}
	.st29{display:none;fill:#FFC1FF;}
	.st30{display:none;enable-background:new    ;}
	.st31{font-family:'Apple-Chancery';}
	.st32{font-size:5.4852px;}
	.st33{font-size:6px;}
</style>
<g id="Calque_3" class="st0">
	<title>LESAMAZONES1</title>
	<ellipse class="st1" cx="7.9" cy="70.6" rx="4" ry="2.1"/>
	<ellipse class="st1" cx="16" cy="66.9" rx="3.9" ry="2"/>
	<ellipse transform="matrix(0.9854 -0.1701 0.1701 0.9854 -9.7633 4.0407)" class="st2" cx="18.7" cy="59" rx="2.7" ry="2.8"/>
	<ellipse class="st1" cx="37.1" cy="50.9" rx="4" ry="2.1"/>
	<ellipse class="st1" cx="41" cy="42.2" rx="3.4" ry="3"/>
	<ellipse transform="matrix(0.3098 -0.9508 0.9508 0.3098 6.2954 60.6153)" class="st1" cx="44.9" cy="26" rx="2.9" ry="3.7"/>
	<ellipse class="st1" cx="44.6" cy="14.8" rx="2.5" ry="2.7"/>
	<ellipse class="st1" cx="40.8" cy="10.9" rx="4" ry="3.6"/>
	<ellipse class="st1" cx="19" cy="11.8" rx="5.4" ry="3.6"/>
	<ellipse transform="matrix(0.9346 -0.3558 0.3558 0.9346 -7.4184 7.0658)" class="st1" cx="15.5" cy="23.7" rx="5.2" ry="3.6"/>
	<ellipse class="st1" cx="20.3" cy="32.1" rx="3.8" ry="3.1"/>
	<ellipse class="st1" cx="37" cy="44.1" rx="3.2" ry="2.2"/>
	<ellipse class="st1" cx="41.2" cy="61.8" rx="3.9" ry="2.8"/>
	<ellipse class="st1" cx="48.4" cy="69.3" rx="3.7" ry="3.2"/>
	<ellipse class="st1" cx="22.9" cy="45.6" rx="4.1" ry="3.5"/>
	<ellipse class="st1" cx="30.3" cy="48.5" rx="3.7" ry="2.8"/>
	<ellipse class="st1" cx="34.3" cy="6.1" rx="4.4" ry="3.6"/>
	<ellipse class="st2" cx="8.6" cy="67.2" rx="4.2" ry="3.5"/>
	<ellipse class="st3" cx="15.1" cy="70.2" rx="4.4" ry="2.9"/>
	<ellipse class="st3" cx="13.8" cy="62.7" rx="3.6" ry="2.4"/>
	<ellipse transform="matrix(0.9759 -0.2181 0.2181 0.9759 -10.7705 6.2221)" class="st2" cx="22.8" cy="51.9" rx="3.3" ry="3.6"/>
	<ellipse class="st2" cx="26.1" cy="52.3" rx="4.2" ry="2.5"/>
	<ellipse class="st3" cx="22.8" cy="57.6" rx="3.6" ry="3.8"/>
	<ellipse class="st2" cx="40.3" cy="52.1" rx="2.7" ry="2.2"/>
	<ellipse class="st2" cx="41.4" cy="37.3" rx="3.4" ry="2.6"/>
	<ellipse class="st3" cx="31.4" cy="43.7" rx="3.6" ry="3"/>
	<ellipse class="st2" cx="36" cy="46.7" rx="3.3" ry="2.8"/>
	<ellipse class="st3" cx="44.3" cy="58.4" rx="3" ry="1.9"/>
	<ellipse class="st2" cx="42.8" cy="55.4" rx="2.9" ry="3.2"/>
	<ellipse class="st3" cx="45.9" cy="65" rx="3.5" ry="3.4"/>
	<ellipse class="st3" cx="54.4" cy="73.5" rx="4.6" ry="3.5"/>
	<ellipse transform="matrix(0.7055 -0.7087 0.7087 0.7055 -29.2474 52.2256)" class="st2" cx="48.2" cy="61.3" rx="3.1" ry="3.6"/>
	<ellipse class="st3" cx="39.9" cy="49" rx="3.8" ry="2.8"/>
	<ellipse class="st3" cx="25.6" cy="47.9" rx="3.7" ry="3.2"/>
	<ellipse class="st3" cx="44.2" cy="38.2" rx="3.4" ry="2.5"/>
	<ellipse class="st3" cx="19" cy="37.7" rx="3.5" ry="3"/>
	<ellipse class="st2" cx="15.9" cy="34.8" rx="4.1" ry="3.5"/>
	<ellipse class="st2" cx="36.9" cy="11.6" rx="4" ry="3.2"/>
	<ellipse class="st3" cx="14.6" cy="28.9" rx="4.1" ry="3.4"/>
	<ellipse class="st2" cx="15.4" cy="17.6" rx="3.8" ry="3.8"/>
	<ellipse class="st3" cx="24" cy="14.1" rx="4" ry="2.6"/>
	<ellipse class="st3" cx="24.3" cy="6.1" rx="5.2" ry="3.7"/>
	<ellipse class="st2" cx="29.2" cy="9.5" rx="4.9" ry="3.4"/>
	<ellipse class="st3" cx="38.9" cy="7" rx="2.7" ry="2.9"/>
	<ellipse class="st2" cx="21.8" cy="10.8" rx="3" ry="2.4"/>
	<ellipse class="st3" cx="41.2" cy="17.9" rx="3.2" ry="2.9"/>
	<ellipse class="st3" cx="41.4" cy="12.5" rx="2" ry="2.4"/>
	<ellipse class="st3" cx="46.8" cy="22.2" rx="4.3" ry="3.3"/>
	<ellipse class="st2" cx="41.4" cy="22.4" rx="3.4" ry="2.9"/>
	<ellipse class="st2" cx="47" cy="29.4" rx="2.9" ry="3.1"/>
	<ellipse class="st3" cx="41.3" cy="28.5" rx="2.7" ry="2.8"/>
	<ellipse class="st3" cx="37" cy="54.6" rx="3.6" ry="3"/>
	<ellipse class="st3" cx="4.3" cy="72.1" rx="4.3" ry="3.4"/>
	<ellipse class="st2" cx="12" cy="73.7" rx="4.5" ry="3.3"/>
	<ellipse transform="matrix(0.9599 -0.2802 0.2802 0.9599 -17.1989 18.4992)" class="st2" cx="56.1" cy="69.4" rx="3.9" ry="3.8"/>
	<ellipse class="st4" cx="19.5" cy="16.1" rx="3.7" ry="2.6"/>
	<ellipse class="st4" cx="45" cy="17.6" rx="4.5" ry="3.3"/>
	<ellipse class="st4" cx="52.2" cy="65.8" rx="3.2" ry="2.6"/>
	<ellipse class="st4" cx="43.9" cy="32.7" rx="4.5" ry="3.6"/>
	<ellipse class="st4" cx="35.9" cy="41.9" rx="3.4" ry="2.6"/>
	<ellipse class="st4" cx="28.2" cy="3.8" rx="5.2" ry="3.8"/>
	<ellipse transform="matrix(0.9538 -0.3004 0.3004 0.9538 -7.0142 6.9823)" class="st4" cx="19.2" cy="26.3" rx="4.4" ry="3"/>
	<ellipse transform="matrix(0.9859 -0.1673 0.1673 0.9859 -10.4044 4.2968)" class="st4" cx="20.3" cy="63.9" rx="3.8" ry="3.1"/>
	<ellipse class="st5" cx="30.3" cy="48.4" rx="4.7" ry="3.8"/>
	<ellipse class="st4" cx="19.6" cy="41" rx="4.6" ry="3.7"/>
	<ellipse class="st4" cx="40.6" cy="58.2" rx="3.3" ry="2.6"/>
	<ellipse class="st2" cx="50.9" cy="72.5" rx="3.6" ry="3"/>
	<path class="st6" d="M32.9,51.8l0.8-0.9c0.2,0.1,0.4,0.1,0.7,0.1c0.4-0.2,0.7-0.5,0.8-1.1c0.2-0.7,0.3-1.5,0.2-2.3v-1.1
		c0-1.3,0.3-2.5,1-3.3c0.5-0.6,1.2-1,1.9-1c0.3,0,0.6,0.1,0.8,0.3l-0.8,1c-0.3-0.3-0.6-0.4-0.9-0.4c-0.7,0-1.1,0.9-1.1,2.6v1
		c0,1-0.1,2-0.3,3c-0.2,0.7-0.6,1.2-1,1.5l1,0.1h1.5c0.7,0.1,1.4-0.3,2-1c0,0.1,0.1,0.2,0.1,0.2c-0.1,0.3-0.3,0.6-0.5,0.8
		c-0.5,0.6-1.1,0.9-1.8,1h-0.9L35,52C34.3,52,33.6,51.9,32.9,51.8z"/>
	<path class="st7" d="M43.2,49.7c0.1,0,0.1,0.2,0.1,0.3c0,0.2-0.1,0.4-0.3,0.8c-0.4,0.8-1,1.3-1.7,1.4c-0.3,0-0.6-0.2-0.8-0.6
		c-0.2-0.4-0.4-1-0.3-1.6c0-1.2,0.3-2.4,0.9-3.3c0.4-0.9,1-1.5,1.7-1.6c0.4,0,0.6,0.3,0.6,0.9c0,0.8-0.3,1.6-0.7,2
		c-0.5,0.7-1.1,1.2-1.8,1.4c0.1,1.1,0.4,1.7,0.9,1.7C42.4,51.2,43,50.7,43.2,49.7z M40.9,48.7h0.3c0.4,0,0.8-0.2,1.1-0.5
		s0.5-0.7,0.5-1.3c0-0.5-0.2-0.8-0.6-0.8c-0.3,0-0.6,0.3-0.8,0.7C41.1,47.3,40.9,48,40.9,48.7z"/>
	<path class="st8" d="M43.7,51.7l0.7-0.8c0.3,0.4,0.6,0.6,1,0.6c0.5,0,0.7-0.3,0.7-1c0-0.4-0.2-0.9-0.7-1.6l-0.3-0.4
		c-0.4-0.6-0.6-1.2-0.6-1.6c0-0.6,0.2-1.1,0.5-1.4c0.4-0.3,0.8-0.5,1.3-0.4c0.3,0,0.6,0.1,0.9,0.2l-0.6,0.8
		c-0.3-0.3-0.6-0.4-0.9-0.4c-0.4,0-0.6,0.2-0.6,0.7s0.2,0.8,0.6,1.4l0.3,0.5c0.5,0.7,0.7,1.2,0.7,1.7c0,0.7-0.3,1.2-0.6,1.6
		C45.5,52.3,44.5,52.4,43.7,51.7L43.7,51.7z"/>
	<path class="st9" d="M51,46.4l-0.9,1.1c-0.2-0.5-0.2-1-0.2-1.6c0-1.2,0.5-2.3,1.2-2.8c1.1-0.7,2.3-1,3.5-0.9h0.8h0.9h0.4
		c-0.4,1.1-0.6,2.4-0.5,3.6V47c0,1,0.1,2,0.3,3c0,0.3,0.1,0.5,0.2,0.8c0.1,0.1,0.2,0.2,0.4,0.2s0.5-0.1,0.7-0.2c0,0.1,0,0.1,0,0.2
		c0,0.1-0.1,0.2-0.2,0.3l-0.3,0.2l-1.4,0.8c-0.3-1.2-0.5-2.5-0.6-3.8l-0.4,0.4H53c-0.3,1-0.8,1.8-1.4,2.4l1.1,0.1L52,52l-2.3-0.1
		l0.8-0.8h0.6c0.3-0.3,0.5-0.6,0.7-1c0.3-0.8,0.6-1.6,0.8-2.5l0.2-0.6c0.2-0.9,0.6-1.8,1-2.6c0.3-0.6,0.8-1,1.3-1.3
		c-0.6-0.1-1.3-0.2-1.9-0.2c-1.7,0-2.5,0.7-2.5,2.1C50.7,45.5,50.8,46,51,46.4z M55.4,48c0-0.8-0.1-1.6-0.1-2v-1.4
		c0-0.4,0.1-0.9,0.1-1.3c-0.9,0.8-1.5,2-1.8,3.5c-0.1,0.5-0.2,0.8-0.2,0.9L53.2,48H55.4z"/>
	<path class="st10" d="M62.3,51.7l-0.8,0.4v-1.3l0.3-3.2v-0.9c0-0.5-0.1-0.7-0.3-0.7c-0.5,0.2-0.8,0.7-1.1,1.4
		c-0.4,0.8-0.6,1.7-0.7,2.6l-0.1,1.7l-0.8,0.4v-1.3l0.3-3.4V47c0-0.2,0-0.5,0-0.7c0-0.3,0-0.5-0.2-0.5s-0.5,0.4-0.8,1.2
		C58,47.1,58,47,58,46.9c0.1-0.5,0.3-0.9,0.6-1.2c0.2-0.4,0.6-0.7,0.9-0.8c0.3,0,0.4,0.3,0.4,0.8c0,0.2,0,0.4,0,0.5v1.1v0.5l0.2-0.3
		c0.8-1.8,1.5-2.6,2.1-2.6c0.3,0,0.5,0.3,0.5,1v0.7v0.7l-0.1,0.9c0.3-0.9,0.6-1.7,1-2.3c0.3-0.5,0.7-0.9,1.2-1
		c0.3,0,0.5,0.3,0.5,0.9c0,0.3,0,0.6,0,1L65,49.5c0,0.4-0.1,0.9-0.1,1.3c0,0.3,0,0.4,0.2,0.4c0.2-0.1,0.3-0.2,0.4-0.4
		c0.2-0.3,0.3-0.6,0.4-0.9C66,50,66,50.1,66,50.2c-0.1,0.5-0.3,0.9-0.6,1.2c-0.2,0.4-0.6,0.7-0.9,0.8c-0.3,0-0.4-0.3-0.4-0.8
		s0-1.1,0.1-1.6l0.2-1.8v-1.4c0-0.4-0.1-0.6-0.3-0.6c-0.5,0.2-0.9,0.7-1.1,1.4c-0.4,0.8-0.6,1.7-0.7,2.6L62.3,51.7z"/>
	<path class="st11" d="M69.5,48.9c-0.3,0.9-0.8,1.7-1.3,2.4c-0.3,0.5-0.7,0.8-1.2,0.9c-0.5,0-0.7-0.6-0.7-1.7c0-3.2,1.5-5.7,3.4-5.8
		c0.3,0,0.6,0.1,0.9,0.2v0.2l-0.1,0.4c0,0.2,0,0.3-0.1,0.5l-0.3,3.4v0.5c0,0.3-0.1,0.6-0.1,1c0,0.2,0,0.3,0.1,0.3
		c0.3,0,0.6-0.5,0.9-1.4c0.1,0,0.1,0.2,0.1,0.2s-0.1,0.5-0.4,1.1s-0.7,1-1.1,1.1c-0.2,0-0.4-0.2-0.4-0.7v-0.7v-0.6l0.1-0.7
		L69.5,48.9z M69.8,45.8c-0.3-0.3-0.6-0.4-0.9-0.4c-0.5,0-1,0.5-1.2,1.3c-0.3,1-0.5,2.1-0.5,3.3c0,0.7,0.1,1,0.4,1
		c0.4-0.1,0.8-0.5,1.1-1.1c0.6-0.9,0.9-2,1.1-3.2V45.8z"/>
	<path class="st12" d="M71.3,52.1l0.4-1.1c0.2-0.3,0.4-0.6,0.6-0.9l0.3-0.6l0.2-0.4l0.2-0.4l0.3-0.7l0.5-0.8l0.4-0.7l0.1-0.2h-0.1
		c-0.3,0-0.6-0.1-0.9-0.3h-0.2L73,45.9c-0.1,0-0.2,0-0.2,0c-0.2,0-0.3,0.1-0.4,0.4l0,0v0.1c0,0.1,0,0.3,0.1,0.4l-0.6,0.7v-0.3
		c0-0.6,0.1-1.2,0.4-1.6c0.2-0.4,0.6-0.6,0.9-0.6h0.4h0.3h0.2c0.2,0.1,0.4,0.1,0.6,0.1c0.3,0,0.5-0.1,0.8-0.2L75.1,46
		c-0.2,0.4-0.5,0.8-0.8,1.3L73.9,48l-0.3,0.6L73.4,49l-0.2,0.4L72.8,50l-0.2,0.5l-0.2,0.3h0.5c0.2,0,0.5,0,0.7,0.1h1
		c0.3,0,0.5-0.1,0.7-0.4c0.1,0.1,0.1,0.1,0.1,0.2c0,0.3-0.1,0.6-0.3,0.7c-0.2,0.2-0.4,0.3-0.6,0.3h-1.7
		C72.2,51.8,71.8,51.9,71.3,52.1z"/>
	<path class="st13" d="M77.1,52.2c-0.8,0-1.2-0.7-1.2-2.2c0-1.3,0.4-2.5,0.9-3.4c0.4-0.9,1.1-1.5,1.8-1.6c0.8,0,1.2,0.7,1.2,2.2
		c0,1.3-0.4,2.5-0.9,3.4C78.5,51.5,77.8,52.1,77.1,52.2z M77.7,51.3c0.4,0,0.8-0.4,1-1c0.3-0.7,0.4-1.5,0.4-2.3c0-1.6-0.3-2.3-1-2.3
		c-0.4,0.1-0.7,0.4-0.9,1c-0.3,0.7-0.4,1.5-0.4,2.4C76.7,50.6,77,51.3,77.7,51.3L77.7,51.3z"/>
	<path class="st14" d="M81.8,51.7L81,52.2v-1.3l0.2-3.4v-1.1c0-0.2,0-0.5-0.2-0.5c-0.4,0.2-0.6,0.7-0.8,1.2
		c-0.1-0.1-0.1-0.2-0.1-0.2c0.1-0.5,0.3-0.9,0.6-1.2c0.2-0.4,0.6-0.7,0.9-0.8c0.3,0,0.4,0.3,0.4,0.8v2.1c0.4-0.8,0.8-1.5,1.3-2.1
		c0.3-0.5,0.8-0.8,1.2-0.9c0.3,0,0.5,0.3,0.5,1c0,0.3,0,0.6-0.1,0.9l-0.3,2.7c0,0.4-0.1,0.9-0.1,1.3c0,0.2,0,0.4,0.2,0.4
		c0.4-0.3,0.7-0.8,0.9-1.3c0.1,0,0.1,0.2,0.1,0.2c0,0.3-0.2,0.7-0.6,1.2c-0.3,0.4-0.6,0.7-0.9,0.8c-0.3,0-0.4-0.3-0.4-0.8
		s0-1.1,0.1-1.6l0.2-1.8c0.1-0.5,0.1-0.9,0.1-1.4c0-0.4-0.1-0.6-0.3-0.6c-0.5,0.1-1,0.6-1.3,1.3C82.3,48,82,48.9,82,49.9L81.8,51.7z
		"/>
	<path class="st15" d="M89.3,49.6c0.1,0.1,0.1,0.2,0.1,0.3c0,0.2-0.1,0.4-0.3,0.8c-0.4,0.9-1,1.4-1.7,1.5c-0.3,0-0.6-0.2-0.9-0.6
		c-0.2-0.5-0.4-1.1-0.3-1.7c0-1.3,0.4-2.6,0.9-3.5c0.4-1,1-1.6,1.7-1.7c0.4,0,0.6,0.3,0.6,1c0,0.9-0.3,1.7-0.7,2.2
		c-0.5,0.7-1.1,1.2-1.8,1.5c0.1,1.2,0.4,1.8,0.9,1.8C88.5,51.2,89.1,50.5,89.3,49.6z M87,48.5h0.3c0.4,0,0.8-0.2,1.1-0.6
		c0.3-0.3,0.5-0.8,0.5-1.4c0-0.6-0.2-0.9-0.6-0.9c-0.3,0-0.6,0.3-0.8,0.8C87.2,47,87.1,47.7,87,48.5L87,48.5z"/>
	<path class="st16" d="M89.8,51.8l0.7-0.8c0.3,0.4,0.6,0.6,1,0.6c0.5,0,0.7-0.3,0.7-1c0-0.4-0.2-0.9-0.7-1.6l-0.3-0.4
		c-0.4-0.7-0.6-1.2-0.6-1.6c0-0.6,0.2-1.2,0.5-1.5c0.4-0.4,0.8-0.6,1.3-0.6c0.3,0,0.6,0.1,0.9,0.2l-0.6,0.8
		c-0.3-0.3-0.6-0.4-0.9-0.4c-0.4,0-0.6,0.2-0.6,0.7s0.2,0.8,0.6,1.4l0.3,0.5c0.5,0.7,0.7,1.3,0.7,1.7c0,0.7-0.3,1.3-0.6,1.6
		C91.5,52.3,90.5,52.4,89.8,51.8L89.8,51.8z"/>
	<rect x="36.8" y="44.1" class="st5" width="58" height="10.1"/>
</g>
<g id="Calque_4" class="st0">
	<ellipse class="st1" cx="-116.7" cy="49.2" rx="4" ry="2.1"/>
	<ellipse class="st1" cx="-108.6" cy="45.5" rx="3.9" ry="2"/>
	
		<ellipse transform="matrix(0.9854 -0.1701 0.1701 0.9854 -7.9397 -17.4653)" class="st2" cx="-105.9" cy="37.6" rx="2.7" ry="2.8"/>
	<ellipse class="st1" cx="-87.5" cy="29.5" rx="4" ry="2.1"/>
	<ellipse class="st1" cx="-83.6" cy="20.8" rx="3.4" ry="3"/>
	<ellipse transform="matrix(0.3098 -0.9508 0.9508 0.3098 -59.3585 -72.5869)" class="st1" cx="-79.7" cy="4.6" rx="2.9" ry="3.7"/>
	<ellipse class="st1" cx="-80" cy="-6.6" rx="2.5" ry="2.7"/>
	<ellipse class="st1" cx="-83.8" cy="-10.5" rx="4" ry="3.6"/>
	<ellipse class="st1" cx="-105.6" cy="-9.6" rx="5.4" ry="3.6"/>
	<ellipse transform="matrix(0.9346 -0.3558 0.3558 0.9346 -7.9611 -38.665)" class="st1" cx="-109.1" cy="2.3" rx="5.2" ry="3.6"/>
	<ellipse class="st1" cx="-104.3" cy="10.7" rx="3.8" ry="3.1"/>
	<ellipse class="st1" cx="-87.6" cy="22.7" rx="3.2" ry="2.2"/>
	<ellipse class="st1" cx="-83.4" cy="40.4" rx="3.9" ry="2.8"/>
	<ellipse class="st1" cx="-76.2" cy="47.9" rx="3.7" ry="3.2"/>
	<ellipse class="st1" cx="-101.7" cy="24.2" rx="4.1" ry="3.5"/>
	<ellipse class="st1" cx="-94.3" cy="27.1" rx="3.7" ry="2.8"/>
	<ellipse class="st1" cx="-90.3" cy="-15.3" rx="4.4" ry="3.6"/>
	<ellipse class="st2" cx="-116" cy="45.8" rx="4.2" ry="3.5"/>
	<ellipse class="st3" cx="-109.5" cy="48.8" rx="4.4" ry="2.9"/>
	<ellipse class="st3" cx="-110.8" cy="41.3" rx="3.6" ry="2.4"/>
	
		<ellipse transform="matrix(0.9759 -0.2181 0.2181 0.9759 -9.1038 -21.4677)" class="st2" cx="-101.8" cy="30.5" rx="3.3" ry="3.6"/>
	<ellipse class="st2" cx="-98.5" cy="30.9" rx="4.2" ry="2.5"/>
	<ellipse class="st3" cx="-101.8" cy="36.2" rx="3.6" ry="3.8"/>
	<ellipse class="st2" cx="-84.3" cy="30.7" rx="2.7" ry="2.2"/>
	<ellipse class="st2" cx="-83.2" cy="15.9" rx="3.4" ry="2.6"/>
	<ellipse class="st3" cx="-93.2" cy="22.3" rx="3.6" ry="3"/>
	<ellipse class="st2" cx="-88.6" cy="25.3" rx="3.3" ry="2.8"/>
	<ellipse class="st3" cx="-80.3" cy="37" rx="3" ry="1.9"/>
	<ellipse class="st2" cx="-81.8" cy="34" rx="2.9" ry="3.2"/>
	<ellipse class="st3" cx="-78.7" cy="43.6" rx="3.5" ry="3.4"/>
	<ellipse class="st3" cx="-70.2" cy="52.1" rx="4.6" ry="3.5"/>
	<ellipse transform="matrix(0.7055 -0.7087 0.7087 0.7055 -50.7829 -42.367)" class="st2" cx="-76.4" cy="39.9" rx="3.1" ry="3.6"/>
	<ellipse class="st3" cx="-84.7" cy="27.6" rx="3.8" ry="2.8"/>
	<ellipse class="st3" cx="-99" cy="26.5" rx="3.7" ry="3.2"/>
	<ellipse class="st3" cx="-80.4" cy="16.8" rx="3.4" ry="2.5"/>
	<ellipse class="st3" cx="-105.6" cy="16.3" rx="3.5" ry="3"/>
	<ellipse class="st2" cx="-108.7" cy="13.4" rx="4.1" ry="3.5"/>
	<ellipse class="st2" cx="-87.7" cy="-9.8" rx="4" ry="3.2"/>
	<ellipse class="st3" cx="-110" cy="7.5" rx="4.1" ry="3.4"/>
	<ellipse class="st2" cx="-109.2" cy="-3.8" rx="3.8" ry="3.8"/>
	<ellipse class="st3" cx="-100.6" cy="-7.3" rx="4" ry="2.6"/>
	<ellipse class="st3" cx="-100.3" cy="-15.3" rx="5.2" ry="3.7"/>
	<ellipse class="st2" cx="-95.4" cy="-11.9" rx="4.9" ry="3.4"/>
	<ellipse class="st3" cx="-85.7" cy="-14.4" rx="2.7" ry="2.9"/>
	<ellipse class="st2" cx="-102.8" cy="-10.6" rx="3" ry="2.4"/>
	<ellipse class="st3" cx="-83.4" cy="-3.5" rx="3.2" ry="2.9"/>
	<ellipse class="st3" cx="-83.2" cy="-8.9" rx="2" ry="2.4"/>
	<ellipse class="st3" cx="-77.8" cy="0.8" rx="4.3" ry="3.3"/>
	<ellipse class="st2" cx="-83.2" cy="1" rx="3.4" ry="2.9"/>
	<ellipse class="st2" cx="-77.6" cy="8" rx="2.9" ry="3.1"/>
	<ellipse class="st3" cx="-83.3" cy="7.1" rx="2.7" ry="2.8"/>
	<ellipse class="st3" cx="-87.6" cy="33.2" rx="3.6" ry="3"/>
	<ellipse class="st3" cx="-120.3" cy="50.7" rx="4.3" ry="3.4"/>
	<ellipse class="st2" cx="-112.6" cy="52.3" rx="4.5" ry="3.3"/>
	<ellipse transform="matrix(0.9599 -0.2802 0.2802 0.9599 -16.1956 -17.2699)" class="st2" cx="-68.5" cy="48" rx="3.9" ry="3.8"/>
	<ellipse class="st4" cx="-105.1" cy="-5.3" rx="3.7" ry="2.6"/>
	<ellipse class="st4" cx="-79.6" cy="-3.8" rx="4.5" ry="3.3"/>
	<ellipse class="st4" cx="-72.4" cy="44.4" rx="3.2" ry="2.6"/>
	<ellipse class="st4" cx="-80.7" cy="11.3" rx="4.5" ry="3.6"/>
	<ellipse class="st4" cx="-88.7" cy="20.5" rx="3.4" ry="2.6"/>
	<ellipse class="st4" cx="-96.4" cy="-17.6" rx="5.2" ry="3.8"/>
	<ellipse transform="matrix(0.9538 -0.3004 0.3004 0.9538 -6.3426 -31.4346)" class="st4" cx="-105.4" cy="4.9" rx="4.4" ry="3"/>
	<ellipse transform="matrix(0.9859 -0.1673 0.1673 0.9859 -8.581 -16.85)" class="st4" cx="-104.3" cy="42.5" rx="3.8" ry="3.1"/>
	<ellipse class="st5" cx="-94.3" cy="27" rx="4.7" ry="3.8"/>
	<ellipse class="st4" cx="-105" cy="19.6" rx="4.6" ry="3.7"/>
	<ellipse class="st4" cx="-84" cy="36.8" rx="3.3" ry="2.6"/>
	<ellipse class="st2" cx="-73.7" cy="51.1" rx="3.6" ry="3"/>
	<path class="st6" d="M-91.7,30.4l0.8-0.9c0.2,0.1,0.4,0.1,0.7,0.1c0.4-0.2,0.7-0.5,0.8-1.1c0.2-0.7,0.3-1.5,0.2-2.3v-1.1
		c0-1.3,0.3-2.5,1-3.3c0.5-0.6,1.2-1,1.9-1c0.3,0,0.6,0.1,0.8,0.3l-0.8,1c-0.3-0.3-0.6-0.4-0.9-0.4c-0.7,0-1.1,0.9-1.1,2.6v1
		c0,1-0.1,2-0.3,3c-0.2,0.7-0.6,1.2-1,1.5l1,0.1h1.5c0.7,0.1,1.4-0.3,2-1c0,0.1,0.1,0.2,0.1,0.2c-0.1,0.3-0.3,0.6-0.5,0.8
		c-0.5,0.6-1.1,0.9-1.8,1h-0.9l-1.4-0.3C-90.3,30.6-91,30.5-91.7,30.4z"/>
	<path class="st7" d="M-81.4,28.3c0.1,0,0.1,0.2,0.1,0.3c0,0.2-0.1,0.4-0.3,0.8c-0.4,0.8-1,1.3-1.7,1.4c-0.3,0-0.6-0.2-0.8-0.6
		c-0.2-0.4-0.4-1-0.3-1.6c0-1.2,0.3-2.4,0.9-3.3c0.4-0.9,1-1.5,1.7-1.6c0.4,0,0.6,0.3,0.6,0.9c0,0.8-0.3,1.6-0.7,2
		c-0.5,0.7-1.1,1.2-1.8,1.4c0.1,1.1,0.4,1.7,0.9,1.7C-82.2,29.8-81.6,29.3-81.4,28.3z M-83.7,27.3h0.3c0.4,0,0.8-0.2,1.1-0.5
		c0.3-0.3,0.5-0.7,0.5-1.3c0-0.5-0.2-0.8-0.6-0.8c-0.3,0-0.6,0.3-0.8,0.7C-83.5,25.9-83.7,26.6-83.7,27.3z"/>
	<path class="st8" d="M-80.9,30.3l0.7-0.8c0.3,0.4,0.6,0.6,1,0.6c0.5,0,0.7-0.3,0.7-1c0-0.4-0.2-0.9-0.7-1.6l-0.3-0.4
		c-0.4-0.6-0.6-1.2-0.6-1.6c0-0.6,0.2-1.1,0.5-1.4c0.4-0.3,0.8-0.5,1.3-0.4c0.3,0,0.6,0.1,0.9,0.2l-0.6,0.8
		c-0.3-0.3-0.6-0.4-0.9-0.4c-0.4,0-0.6,0.2-0.6,0.7s0.2,0.8,0.6,1.4l0.3,0.5c0.5,0.7,0.7,1.2,0.7,1.7c0,0.7-0.3,1.2-0.6,1.6
		C-79.1,30.9-80.1,31-80.9,30.3L-80.9,30.3z"/>
	<path class="st9" d="M-73.6,25l-0.9,1.1c-0.2-0.5-0.2-1-0.2-1.6c0-1.2,0.5-2.3,1.2-2.8c1.1-0.7,2.3-1,3.5-0.9h0.8h0.9h0.4
		c-0.4,1.1-0.6,2.4-0.5,3.6v1.2c0,1,0.1,2,0.3,3c0,0.3,0.1,0.5,0.2,0.8c0.1,0.1,0.2,0.2,0.4,0.2c0.2,0,0.5-0.1,0.7-0.2
		c0,0.1,0,0.1,0,0.2s-0.1,0.2-0.2,0.3l-0.3,0.2l-1.4,0.8c-0.3-1.2-0.5-2.5-0.6-3.8l-0.4,0.4h-1.9c-0.3,1-0.8,1.8-1.4,2.4l1.1,0.1
		l-0.7,0.6l-2.3-0.1l0.8-0.8h0.6c0.3-0.3,0.5-0.6,0.7-1c0.3-0.8,0.6-1.6,0.8-2.5l0.2-0.6c0.2-0.9,0.6-1.8,1-2.6
		c0.3-0.6,0.8-1,1.3-1.3c-0.6-0.1-1.3-0.2-1.9-0.2c-1.7,0-2.5,0.7-2.5,2.1C-73.9,24.1-73.8,24.6-73.6,25z M-69.2,26.6
		c0-0.8-0.1-1.6-0.1-2v-1.4c0-0.4,0.1-0.9,0.1-1.3c-0.9,0.8-1.5,2-1.8,3.5c-0.1,0.5-0.2,0.8-0.2,0.9l-0.2,0.3H-69.2z"/>
	<path class="st10" d="M-62.3,30.3l-0.8,0.4v-1.3l0.3-3.2v-0.9c0-0.5-0.1-0.7-0.3-0.7c-0.5,0.2-0.8,0.7-1.1,1.4
		c-0.4,0.8-0.6,1.7-0.7,2.6l-0.1,1.7l-0.8,0.4v-1.3l0.3-3.4v-0.4c0-0.2,0-0.5,0-0.7c0-0.3,0-0.5-0.2-0.5s-0.5,0.4-0.8,1.2
		c-0.1,0.1-0.1,0-0.1-0.1c0.1-0.5,0.3-0.9,0.6-1.2c0.2-0.4,0.6-0.7,0.9-0.8c0.3,0,0.4,0.3,0.4,0.8c0,0.2,0,0.4,0,0.5v1.1v0.5
		l0.2-0.3c0.8-1.8,1.5-2.6,2.1-2.6c0.3,0,0.5,0.3,0.5,1v0.7v0.7l-0.1,0.9c0.3-0.9,0.6-1.7,1-2.3c0.3-0.5,0.7-0.9,1.2-1
		c0.3,0,0.5,0.3,0.5,0.9c0,0.3,0,0.6,0,1l-0.3,2.7c0,0.4-0.1,0.9-0.1,1.3c0,0.3,0,0.4,0.2,0.4c0.2-0.1,0.3-0.2,0.4-0.4
		c0.2-0.3,0.3-0.6,0.4-0.9c0.1,0.1,0.1,0.2,0.1,0.3c-0.1,0.5-0.3,0.9-0.6,1.2c-0.2,0.4-0.6,0.7-0.9,0.8c-0.3,0-0.4-0.3-0.4-0.8
		s0-1.1,0.1-1.6l0.2-1.8v-1.4c0-0.4-0.1-0.6-0.3-0.6c-0.5,0.2-0.9,0.7-1.1,1.4c-0.4,0.8-0.6,1.7-0.7,2.6L-62.3,30.3z"/>
	<path class="st11" d="M-55.1,27.5c-0.3,0.9-0.8,1.7-1.3,2.4c-0.3,0.5-0.7,0.8-1.2,0.9c-0.5,0-0.7-0.6-0.7-1.7
		c0-3.2,1.5-5.7,3.4-5.8c0.3,0,0.6,0.1,0.9,0.2v0.2l-0.1,0.4c0,0.2,0,0.3-0.1,0.5l-0.3,3.4v0.5c0,0.3-0.1,0.6-0.1,1
		c0,0.2,0,0.3,0.1,0.3c0.3,0,0.6-0.5,0.9-1.4c0.1,0,0.1,0.2,0.1,0.2s-0.1,0.5-0.4,1.1s-0.7,1-1.1,1.1c-0.2,0-0.4-0.2-0.4-0.7v-0.7
		v-0.6l0.1-0.7L-55.1,27.5z M-54.8,24.4c-0.3-0.3-0.6-0.4-0.9-0.4c-0.5,0-1,0.5-1.2,1.3c-0.3,1-0.5,2.1-0.5,3.3c0,0.7,0.1,1,0.4,1
		c0.4-0.1,0.8-0.5,1.1-1.1c0.6-0.9,0.9-2,1.1-3.2C-54.8,25.3-54.8,24.4-54.8,24.4z"/>
	<path class="st12" d="M-53.3,30.7l0.4-1.1c0.2-0.3,0.4-0.6,0.6-0.9l0.3-0.6l0.2-0.4l0.2-0.4l0.3-0.7l0.5-0.8l0.4-0.7l0.1-0.2h-0.1
		c-0.3,0-0.6-0.1-0.9-0.3h-0.2l-0.1-0.1c-0.1,0-0.2,0-0.2,0c-0.2,0-0.3,0.1-0.4,0.4l0,0V25c0,0.1,0,0.3,0.1,0.4l-0.6,0.7v-0.3
		c0-0.6,0.1-1.2,0.4-1.6c0.2-0.4,0.6-0.6,0.9-0.6h0.4h0.3h0.2c0.2,0.1,0.4,0.1,0.6,0.1c0.3,0,0.5-0.1,0.8-0.2l-0.4,1.1
		c-0.2,0.4-0.5,0.8-0.8,1.3l-0.4,0.7l-0.3,0.6l-0.2,0.4l-0.2,0.4l-0.4,0.6l-0.2,0.5l-0.2,0.3h0.5c0.2,0,0.5,0,0.7,0.1h1
		c0.3,0,0.5-0.1,0.7-0.4c0.1,0.1,0.1,0.1,0.1,0.2c0,0.3-0.1,0.6-0.3,0.7c-0.2,0.2-0.4,0.3-0.6,0.3h-1.7
		C-52.4,30.4-52.8,30.5-53.3,30.7z"/>
	<path class="st13" d="M-47.5,30.8c-0.8,0-1.2-0.7-1.2-2.2c0-1.3,0.4-2.5,0.9-3.4c0.4-0.9,1.1-1.5,1.8-1.6c0.8,0,1.2,0.7,1.2,2.2
		c0,1.3-0.4,2.5-0.9,3.4C-46.1,30.1-46.8,30.7-47.5,30.8z M-46.9,29.9c0.4,0,0.8-0.4,1-1c0.3-0.7,0.4-1.5,0.4-2.3
		c0-1.6-0.3-2.3-1-2.3c-0.4,0.1-0.7,0.4-0.9,1c-0.3,0.7-0.4,1.5-0.4,2.4C-47.9,29.2-47.6,29.9-46.9,29.9L-46.9,29.9z"/>
	<path class="st14" d="M-42.8,30.3l-0.8,0.5v-1.3l0.2-3.4V25c0-0.2,0-0.5-0.2-0.5c-0.4,0.2-0.6,0.7-0.8,1.2
		c-0.1-0.1-0.1-0.2-0.1-0.2c0.1-0.5,0.3-0.9,0.6-1.2c0.2-0.4,0.6-0.7,0.9-0.8c0.3,0,0.4,0.3,0.4,0.8v2.1c0.4-0.8,0.8-1.5,1.3-2.1
		c0.3-0.5,0.8-0.8,1.2-0.9c0.3,0,0.5,0.3,0.5,1c0,0.3,0,0.6-0.1,0.9L-40,28c0,0.4-0.1,0.9-0.1,1.3c0,0.2,0,0.4,0.2,0.4
		c0.4-0.3,0.7-0.8,0.9-1.3c0.1,0,0.1,0.2,0.1,0.2c0,0.3-0.2,0.7-0.6,1.2c-0.3,0.4-0.6,0.7-0.9,0.8c-0.3,0-0.4-0.3-0.4-0.8
		s0-1.1,0.1-1.6l0.2-1.8c0.1-0.5,0.1-0.9,0.1-1.4c0-0.4-0.1-0.6-0.3-0.6c-0.5,0.1-1,0.6-1.3,1.3c-0.3,0.9-0.6,1.8-0.6,2.8
		L-42.8,30.3z"/>
	<path class="st15" d="M-35.3,28.2c0.1,0.1,0.1,0.2,0.1,0.3c0,0.2-0.1,0.4-0.3,0.8c-0.4,0.9-1,1.4-1.7,1.5c-0.3,0-0.6-0.2-0.9-0.6
		c-0.2-0.5-0.4-1.1-0.3-1.7c0-1.3,0.4-2.6,0.9-3.5c0.4-1,1-1.6,1.7-1.7c0.4,0,0.6,0.3,0.6,1c0,0.9-0.3,1.7-0.7,2.2
		c-0.5,0.7-1.1,1.2-1.8,1.5c0.1,1.2,0.4,1.8,0.9,1.8C-36.1,29.8-35.5,29.1-35.3,28.2z M-37.6,27.1h0.3c0.4,0,0.8-0.2,1.1-0.6
		c0.3-0.3,0.5-0.8,0.5-1.4s-0.2-0.9-0.6-0.9c-0.3,0-0.6,0.3-0.8,0.8C-37.4,25.6-37.5,26.3-37.6,27.1L-37.6,27.1z"/>
	<path class="st16" d="M-34.8,30.4l0.7-0.8c0.3,0.4,0.6,0.6,1,0.6c0.5,0,0.7-0.3,0.7-1c0-0.4-0.2-0.9-0.7-1.6l-0.3-0.4
		c-0.4-0.7-0.6-1.2-0.6-1.6c0-0.6,0.2-1.2,0.5-1.5c0.4-0.4,0.8-0.6,1.3-0.6c0.3,0,0.6,0.1,0.9,0.2l-0.6,0.8
		c-0.3-0.3-0.6-0.4-0.9-0.4c-0.4,0-0.6,0.2-0.6,0.7s0.2,0.8,0.6,1.4l0.3,0.5c0.5,0.7,0.7,1.3,0.7,1.7c0,0.7-0.3,1.3-0.6,1.6
		C-33.1,30.9-34.1,31-34.8,30.4L-34.8,30.4z"/>
	<rect x="-87.8" y="22.7" class="st5" width="58" height="10.1"/>
</g>
<g id="Calque_2_1_">
	
		<ellipse transform="matrix(2.550283e-02 -0.9997 0.9997 2.550283e-02 -39.4392 75.5229)" class="st17" cx="19" cy="58" rx="2.5" ry="2.9"/>
	
		<ellipse transform="matrix(1.874132e-02 -0.9998 0.9998 1.874132e-02 -38.919 80.0994)" class="st18" cx="21.3" cy="59.9" rx="1.9" ry="2.3"/>
	<ellipse transform="matrix(0.8132 -0.5819 0.5819 0.8132 -16.4306 32.2687)" class="st19" cx="42.1" cy="41.7" rx="2.3" ry="2"/>
	<ellipse transform="matrix(0.4752 -0.8799 0.8799 0.4752 -4.2459 58.0109)" class="st18" cx="46.5" cy="32.6" rx="1.8" ry="2.2"/>
	
		<ellipse transform="matrix(3.437731e-03 -1 1 3.437731e-03 21.1041 73.4646)" class="st20" cx="47.4" cy="26.1" rx="1.8" ry="2.2"/>
	
		<ellipse transform="matrix(7.466145e-03 -1 1 7.466145e-03 20.4394 65.7195)" class="st18" cx="43.3" cy="22.6" rx="2.4" ry="2.9"/>
	
		<ellipse transform="matrix(2.059901e-02 -0.9998 0.9998 2.059901e-02 -0.1005 45.9654)" class="st18" cx="23.4" cy="23" rx="2.4" ry="2.7"/>
	<ellipse transform="matrix(0.8016 -0.5979 0.5979 0.8016 -14.4194 17.8054)" class="st21" cx="19.6" cy="30.6" rx="2.2" ry="1.7"/>
	<ellipse transform="matrix(9.905397e-03 -1 1 9.905397e-03 -4.174 81.0103)" class="st18" cx="38.8" cy="42.6" rx="1.5" ry="1.9"/>
	
		<ellipse transform="matrix(1.088799e-02 -0.9999 0.9999 1.088799e-02 -11.5255 92.7503)" class="st22" cx="41.1" cy="52.2" rx="1.9" ry="2.3"/>
	
		<ellipse transform="matrix(5.888318e-03 -1 1 5.888318e-03 -12.1476 98.7728)" class="st20" cx="43.6" cy="55.5" rx="2.1" ry="2.8"/>
	
		<ellipse transform="matrix(2.207253e-02 -0.9998 0.9998 2.207253e-02 -17.5488 64.8923)" class="st17" cx="24.4" cy="41.4" rx="2.3" ry="2.5"/>
	
		<ellipse transform="matrix(1.503381e-02 -0.9999 0.9999 1.503381e-02 -11.7908 79.2489)" class="st17" cx="34.3" cy="45.6" rx="1.9" ry="2.2"/>
	
		<ellipse transform="matrix(1.131682e-02 -0.9999 0.9999 1.131682e-02 17.3264 56.2837)" class="st19" cx="37.1" cy="19.4" rx="2.4" ry="2.8"/>
	
		<ellipse transform="matrix(7.165594e-03 -1 1 7.165594e-03 -33.1057 77.5972)" class="st19" cx="22.5" cy="55.5" rx="2.3" ry="2.9"/>
	
		<ellipse transform="matrix(8.604085e-02 -0.9963 0.9963 8.604085e-02 -22.7093 74.3868)" class="st17" cx="29.2" cy="49.6" rx="2.4" ry="3"/>
	<ellipse transform="matrix(5.922323e-03 -1 1 5.922323e-03 -16.9918 76.4489)" class="st21" cx="30" cy="46.8" rx="1.7" ry="2.7"/>
	<ellipse transform="matrix(3.437716e-03 -1 1 3.437716e-03 -26.6538 76.4564)" class="st23" cx="25" cy="51.6" rx="2.5" ry="3.2"/>
	
		<ellipse transform="matrix(7.061859e-03 -1 1 7.061859e-03 -9.0011 89.1371)" class="st21" cx="40.4" cy="49.1" rx="2.2" ry="2.7"/>
	<ellipse transform="matrix(0.8161 -0.5779 0.5779 0.8161 -15.9423 29.6026)" class="st21" cx="38.5" cy="39.9" rx="2.1" ry="1.7"/>
	
		<ellipse transform="matrix(1.220152e-02 -0.9999 0.9999 1.220152e-02 -15.8209 80.9266)" class="st23" cx="33" cy="48.5" rx="2" ry="2.3"/>
	
		<ellipse transform="matrix(1.976160e-02 -0.9998 0.9998 1.976160e-02 -8.9494 81.0135)" class="st21" cx="36.8" cy="45.1" rx="1.9" ry="2"/>
	<ellipse transform="matrix(3.437748e-03 -1 1 3.437748e-03 16.84 69.1858)" class="st19" cx="43.1" cy="26.1" rx="2.1" ry="2.6"/>
	
		<ellipse transform="matrix(7.909942e-02 -0.9969 0.9969 7.909942e-02 -14.3924 81.362)" class="st19" cx="36.8" cy="48.5" rx="2.2" ry="2.2"/>
	
		<ellipse transform="matrix(0.9972 -7.433647e-02 7.433647e-02 0.9972 -3.975 4.0279)" class="st22" cx="52.1" cy="55.4" rx="2.2" ry="2.3"/>
	<ellipse transform="matrix(0.4292 -0.9032 0.9032 0.4292 -18.4232 66.5661)" class="st23" cx="43.5" cy="47.9" rx="1.8" ry="2.2"/>
	
		<ellipse transform="matrix(1.069643e-02 -0.9999 0.9999 1.069643e-02 3.7498 78.4638)" class="st24" cx="41.5" cy="37.3" rx="1.7" ry="2.1"/>
	
		<ellipse transform="matrix(1.121436e-02 -0.9999 0.9999 1.121436e-02 -17.8694 58.5923)" class="st19" cx="20.7" cy="38.3" rx="2.3" ry="2.7"/>
	<ellipse transform="matrix(8.069241e-03 -1 1 8.069241e-03 16.3022 62.5023)" class="st23" cx="39.7" cy="23" rx="2.1" ry="2.7"/>
	
		<ellipse transform="matrix(8.091616e-03 -1 1 8.091616e-03 -14.8908 53.744)" class="st23" cx="19.6" cy="34.4" rx="2.2" ry="2.8"/>
	
		<ellipse transform="matrix(3.699624e-02 -0.9993 0.9993 3.699624e-02 -5.529 48.1503)" class="st19" cx="22.2" cy="26.9" rx="2.5" ry="2.6"/>
	
		<ellipse transform="matrix(1.335696e-02 -0.9999 0.9999 1.335696e-02 9.8225 53.2673)" class="st22" cx="31.9" cy="21.7" rx="2.2" ry="2.7"/>
	<ellipse transform="matrix(3.437727e-03 -1 1 3.437727e-03 22.1848 62.2436)" class="st17" cx="42.3" cy="20" rx="1.9" ry="2.4"/>
	<ellipse transform="matrix(3.437640e-03 -1 1 3.437640e-03 4.5136 49.5079)" class="st23" cx="27.1" cy="22.5" rx="1.6" ry="2.7"/>
	
		<ellipse transform="matrix(1.756114e-02 -0.9998 0.9998 1.756114e-02 12.6604 73.2503)" class="st17" cx="43.6" cy="30.2" rx="1.9" ry="2.1"/>
	<ellipse transform="matrix(3.437724e-03 -1 1 3.437724e-03 8.1407 83.6759)" class="st22" cx="46.1" cy="37.8" rx="2.1" ry="2.6"/>
	
		<ellipse transform="matrix(4.860340e-02 -0.9988 0.9988 4.860340e-02 -9.4468 103.9096)" class="st19" cx="49.8" cy="56.9" rx="2.2" ry="2.3"/>
	<ellipse transform="matrix(0.2562 -0.9666 0.9666 0.2562 -20.5941 87.065)" class="st17" cx="46.3" cy="56.9" rx="2.3" ry="2.6"/>
	<ellipse transform="matrix(8.173244e-03 -1 1 8.173244e-03 -0.713 50.3655)" class="st17" cx="25" cy="25.5" rx="1.7" ry="2.3"/>
	
		<ellipse transform="matrix(2.258136e-02 -0.9997 0.9997 2.258136e-02 16.9603 76.2355)" class="st17" cx="47.5" cy="29.4" rx="2.2" ry="2.4"/>
	<ellipse transform="matrix(6.692088e-03 -1 1 6.692088e-03 4.143 83.3298)" class="st17" cx="44" cy="39.6" rx="1.7" ry="2.3"/>
	
		<ellipse transform="matrix(6.542261e-03 -1 1 6.542261e-03 -6.5953 76.8249)" class="st22" cx="35.4" cy="41.7" rx="1.7" ry="2.3"/>
	
		<ellipse transform="matrix(2.813275e-02 -0.9996 0.9996 2.813275e-02 13.6584 50.2306)" class="st17" cx="32.7" cy="18.1" rx="2.5" ry="2.7"/>
	<ellipse transform="matrix(0.9313 -0.3643 0.3643 0.9313 -9.6559 10.7536)" class="st17" cx="23.7" cy="31" rx="2.7" ry="2"/>
	<ellipse transform="matrix(0.9374 -0.3482 0.3482 0.9374 -18.5153 12.142)" class="st17" cx="24.5" cy="57.6" rx="2.3" ry="2.1"/>
	
		<ellipse transform="matrix(3.437565e-03 -1 1 3.437565e-03 -7.7224 43.8737)" class="st25" cx="18.2" cy="25.8" rx="0.8" ry="1.3"/>
	
		<ellipse transform="matrix(3.437565e-03 -1 1 3.437565e-03 -8.8793 39.3609)" class="st26" cx="15.3" cy="24.1" rx="0.8" ry="1.2"/>
	<ellipse transform="matrix(3.437565e-03 -1 1 3.437565e-03 -7.0069 48.7682)" class="st26" cx="21" cy="27.9" rx="0.6" ry="0.9"/>
	<ellipse transform="matrix(0.8528 -0.5222 0.5222 0.8528 -20.7236 33.2672)" class="st23" cx="48.7" cy="53.4" rx="2.1" ry="2"/>
	
		<rect x="61.3" y="20.2" transform="matrix(3.437600e-03 -1 1 3.437600e-03 18.409 110.576)" class="st27" width="6.7" height="51.7"/>
	<rect x="41" y="51.5" class="st26" width="15.3" height="15.3"/>
	<rect x="74.3" y="51.3" class="st28" width="15.6" height="15.6"/>
	<rect x="9.9" y="51.4" class="st29" width="15.4" height="15.4"/>
	<text transform="matrix(1.0001 3.437804e-03 -3.437585e-03 1 7.7535 7.5537)" class="st30 st31 st32">Logo:</text>
	<text transform="matrix(1 0 0 1 5.6187 42.0288)" class="st30 st31 st33">Nuances:</text>
	
		<rect x="-0.7" y="25.1" transform="matrix(3.437565e-03 -1 1 3.437565e-03 -34.8527 39.7009)" class="st27" width="6.4" height="24.4"/>
	<text transform="matrix(1 0 0 1 51.1674 7.5535)" class="st30 st31 st33">Police:</text>
	<text transform="matrix(1 0 0 1 51.1675 14.2518)" class="st30 st31 st33">#</text>
	<text transform="matrix(1 -6.133111e-04 6.133111e-04 1 57.4833 14.2518)" class="st30 st31 st33">Appel chancery</text>
	<text transform="matrix(1 0 0 1 50.1516 42.0288)" class="st30 st31 st33">Couleur:#</text>
	<text transform="matrix(1 0 0 1 75.4677 42.0288)" class="st30 st31 st33">4c4b4b</text>
	<ellipse transform="matrix(0.2601 -0.9656 0.9656 0.2601 -18.2776 51.6547)" class="st20" cx="24.6" cy="37.8" rx="1.8" ry="2.3"/>
	<ellipse transform="matrix(0.4343 -0.9007 0.9007 0.4343 -18.239 62.1745)" class="st20" cx="40.4" cy="45.6" rx="2.2" ry="2.6"/>
	
		<ellipse transform="matrix(3.437748e-03 -1 1 3.437748e-03 -12.3266 106.9992)" class="st19" cx="47.5" cy="59.7" rx="2.1" ry="2.6"/>
	<ellipse transform="matrix(3.437748e-03 -1 1 3.437748e-03 -7.033 96.1447)" class="st19" cx="44.7" cy="51.6" rx="2.1" ry="2.6"/>
	
		<ellipse transform="matrix(3.437748e-03 -1 1 3.437748e-03 -17.1099 71.0572)" class="st19" cx="27.1" cy="44.1" rx="2.1" ry="2.6"/>
	<ellipse transform="matrix(3.437748e-03 -1 1 3.437748e-03 4.1256 54.0668)" class="st19" cx="29.2" cy="25" rx="2.1" ry="2.6"/>
	<ellipse transform="matrix(3.437748e-03 -1 1 3.437748e-03 -10.4262 57.5847)" class="st19" cx="23.7" cy="34" rx="2.1" ry="2.6"/>
	<ellipse transform="matrix(3.437748e-03 -1 1 3.437748e-03 9.1989 76.7939)" class="st19" cx="43.1" cy="33.8" rx="2.1" ry="2.6"/>
	
		<ellipse transform="matrix(3.437748e-03 -1 1 3.437748e-03 -26.0164 82.0961)" class="st19" cx="28.2" cy="54.1" rx="2.1" ry="2.6"/>
	<ellipse transform="matrix(3.437748e-03 -1 1 3.437748e-03 7.8437 46.6308)" class="st19" cx="27.3" cy="19.4" rx="2.1" ry="2.6"/>
	
		<ellipse transform="matrix(3.437748e-03 -1 1 3.437748e-03 12.8122 83.2836)" class="st19" cx="48.2" cy="35.2" rx="2.1" ry="2.6"/>
	
		<ellipse transform="matrix(3.437748e-03 -1 1 3.437748e-03 -11.3771 74.9252)" class="st19" cx="31.9" cy="43.2" rx="2.1" ry="2.6"/>
</g>
</svg>
