<?xml version="1.0" encoding="utf-8"?>
<!-- Generator: Adobe Illustrator 24.0.1, SVG Export Plug-In . SVG Version: 6.00 Build 0)  -->
<svg version="1.1" id="Capa_1" xmlns="http://www.w3.org/2000/svg" xmlns:xlink="http://www.w3.org/1999/xlink" x="0px" y="0px"
	 viewBox="0 0 512 512" style="enable-background:new 0 0 512 512;" xml:space="preserve">
<style type="text/css">
	.st0{fill:#6897BE;}
	.st1{fill:#CAE8F9;}
	.st2{fill:#B7E0F6;}
</style>
<path class="st0" d="M373.8,373.7c-5.7,6-15.3,6-21,0l-41.1-40.8c-6-6-6-15.6,0-21.3c5.7-6,15.3-6,21.3,0l40.8,41.1
	C379.8,358.4,379.8,368,373.8,373.7z"/>
<path class="st0" d="M373.8,373.7c-5.7,6-15.3,6-21,0l-41.1-40.8c-6-6-6-15.6,0-21.3L373.8,373.7z"/>
<path class="st0" d="M498.7,435.1L395.1,331.4c-5.7-6-15.3-6-21.3,0l-21,21.3l-21.3,21c-6,6-6,15.6,0,21.3l103.7,103.7
	c17.7,17.7,45.9,17.7,63.6,0C516.4,481.3,516.4,452.5,498.7,435.1z"/>
<path class="st0" d="M498.7,498.7c-17.7,17.7-45.9,17.7-63.6,0L331.5,395c-6-5.7-6-15.3,0-21.3l21.3-21L498.7,498.7z"/>
<path class="st0" d="M332.7,57.3c-76.2-76.5-199.2-76.2-275.4,0c-76.5,76.2-76.2,199.2,0,275.4c76.2,76.5,199.2,76.2,275.4,0
	C409.2,256.4,408.9,133.5,332.7,57.3z"/>
<path class="st0" d="M332.7,332.6c-76.2,76.2-199.2,76.5-275.4,0c-76.2-76.2-76.5-199.2,0-275.4L332.7,332.6z"/>
<path class="st1" d="M195,30c-45.6,0-86.7,18.6-116.7,48.3C48.6,108.3,30,149.4,30,194.9c0,90.9,74.1,165,165,165
	c45.6,0,86.7-18.6,116.7-48.3c29.7-30,48.3-71.1,48.3-116.7C360,104.1,285.9,30,195,30z"/>
<path class="st2" d="M30,194.9c0,90.9,74.1,165,165,165c45.6,0,86.7-18.6,116.7-48.3L78.3,78.3C48.6,108.3,30,149.4,30,194.9z"/>
</svg>
