<?xml version="1.0" encoding="utf-8"?>
<!-- Generator: Adobe Illustrator 24.0.1, SVG Export Plug-In . SVG Version: 6.00 Build 0)  -->
<svg version="1.1" id="Capa_1" xmlns="http://www.w3.org/2000/svg" xmlns:xlink="http://www.w3.org/1999/xlink" x="0px" y="0px"
	 viewBox="0 0 351.1 351.1" style="enable-background:new 0 0 351.1 351.1;" xml:space="preserve">
<g>
	<path d="M237.5,161.5c-2.6-12-22.3-24.7-37.7-24.9c-1.1,0-2.2-0.3-2.9-0.8c-0.7-0.3-1.4-0.5-1.8-1.3c-5.4-7.6-2.6-13.7,6.3-18.6
		c10.3-5.8,26.8-0.2,35.1,5c20.8,12.9,42.1,35.5,41.2,57.1c3.7,14.5,3.1,30-2.2,42.9c-3.5,8.2-13.8,12.4-24.6,13
		c-10.7,0.6-32.9,3.2-42.5-1.7c-9.7-4.9-10.5-14.4-11.6-22.6c-1.2-9-4.5-25.9,5.4-33.1C212.2,169.6,240.8,176.8,237.5,161.5z"/>
	<path d="M149.6,164.3c-2.4-12.1-22.1-25.1-37.7-25.5c-1.1,0-2.2-0.3-2.9-0.8c-0.7-0.3-1.5-0.6-1.8-1.4c-5.3-7.7-2.4-13.7,6.8-18.5
		c10.6-5.6,27.2,0.3,35.5,5.6c20.9,13.4,42,36.3,40.6,57.8c3.4,14.5,2.5,30.1-3.1,42.9c-3.8,8.2-14.3,12.1-25.3,12.6
		c-10.9,0.4-33.4,2.6-43.2-2.4c-9.7-5-10.3-14.6-11.3-22.8c-1-9-4-26,6.3-33C123.7,171.9,153,179.6,149.6,164.3z"/>
</g>
</svg>
