<svg height="512" viewBox="0 0 128 128" width="512" xmlns="http://www.w3.org/2000/svg"><path d="m1 59.015v56.176a11.388 11.388 0 0 0 3.444 8.364 11.388 11.388 0 0 0 8.365 3.445h102.34a11.759 11.759 0 0 0 11.809-11.809v-56.176z" fill="#bee6ff"/><path d="m124.785 54.284s-51.105-37.899-52.91-38.884q-4.675-2.952-7.875-2.952t-7.875 2.952c-1.8.984-52.91 38.883-52.91 38.883a5.608 5.608 0 0 0 -2.215 4.676v.056a5.607 5.607 0 0 0 2.214 4.674s51.086 37.887 52.892 38.871q4.674 2.952 7.872 2.951t7.872-2.951c1.8-.984 52.892-38.871 52.892-38.871a5.607 5.607 0 0 0 2.214-4.674l.043-.056a5.608 5.608 0 0 0 -2.214-4.675z" fill="#aad2ff"/><path d="m20.689 77.64a.994.994 0 0 1 -.594-.2l-17.481-12.947a7.111 7.111 0 0 1 -.021-11c.021-.016 4.672-3.464 11.216-8.306a1 1 0 1 1 1.191 1.607c-6.542 4.842-11.193 8.29-11.193 8.29a5.116 5.116 0 0 0 .019 7.816l17.459 12.936a1 1 0 0 1 -.6 1.8z" fill="#785ae6"/><path d="m112.24 44.86v28.09c-1.56 1.16-3.22 2.38-4.93 3.65v-35.4c1.75 1.29 3.39 2.52 4.93 3.66z" fill="#96bef0"/><path d="m107.31 3.2v73.4c-14.98 11.08-34.36 25.36-35.46 25.96q-4.68 2.955-7.87 2.951c-2.13 0-4.76-.981-7.87-2.951-1.1-.6-20.44-14.85-35.42-25.92v-55.42l20.97-20.97h62.7a2.949 2.949 0 0 1 2.95 2.95z" fill="#fffffa"/><path d="m41.659 1-20.974 20.974v3.956h19.026a5.91 5.91 0 0 0 5.9-5.9v-19.03z" fill="#dcdcd2"/><path d="m20.685 21.974h19.026a1.947 1.947 0 0 0 1.947-1.947v-19.027z" fill="#f0f0e6"/><path d="m41.659 4.22v-3.22l-20.974 20.974h3.22z" fill="#fffffa"/><path d="m27.515 26.976h72.268v32.343h-72.268z" fill="#f0dc78"/><path d="m48.081 11.823h51.701v10.151h-51.701z" fill="#e678a0"/><path d="m57.087 64h-29.572v17.671l14.71 10.84h14.862z" fill="#b4aaf0"/><g fill="#785ae6"><path d="m39.711 22.974h-19.025a1 1 0 0 1 -.707-1.707l20.972-20.974a1 1 0 0 1 1.707.707v19.026a2.951 2.951 0 0 1 -2.947 2.948zm-16.611-2h16.611a.948.948 0 0 0 .947-.947v-16.613z"/><path d="m99.782 60.319h-72.267a1 1 0 0 1 -1-1v-32.343a1 1 0 0 1 1-1h61.02a1 1 0 0 1 0 2h-60.02v30.343h70.267v-30.343h-2.9a1 1 0 0 1 0-2h3.9a1 1 0 0 1 1 1v32.343a1 1 0 0 1 -1 1z"/><path d="m99.782 22.974h-51.7a1 1 0 0 1 -1-1v-10.151a1 1 0 0 1 1-1h51.7a1 1 0 0 1 1 1v10.151a1 1 0 0 1 -1 1zm-50.7-2h49.7v-8.151h-49.7z"/><path d="m57.087 93.511h-14.862a1 1 0 0 1 -.593-.195l-14.71-10.84a1 1 0 0 1 -.407-.805v-17.671a1 1 0 0 1 1-1h29.572a1 1 0 0 1 1 1v28.511a1 1 0 0 1 -1 1zm-14.533-2h13.533v-26.511h-27.572v16.166z"/><path d="m68.775 17.233h-16.789a1 1 0 0 1 0-2h16.789a1 1 0 1 1 0 2z"/><path d="m95.878 55.547h-63.978a1 1 0 1 1 0-2h63.978a1 1 0 0 1 0 2z"/><path d="m79.263 17.233h-6a1 1 0 0 1 0-2h6a1 1 0 1 1 0 2z"/><path d="m95.878 17.233h-6a1 1 0 0 1 0-2h6a1 1 0 1 1 0 2z"/><path d="m92.892 82.106h-29.244a1 1 0 0 1 0-2h29.244a1 1 0 0 1 0 2z"/><path d="m99.782 76.4h-36.134a1 1 0 0 1 0-2h36.134a1 1 0 1 1 0 2z"/><path d="m99.782 70.7h-36.134a1 1 0 0 1 0-2h36.134a1 1 0 1 1 0 2z"/><path d="m74.109 93.511h-10.461a1 1 0 0 1 0-2h10.461a1 1 0 0 1 0 2z"/><path d="m84.57 87.809h-20.922a1 1 0 0 1 0-2h20.922a1 1 0 0 1 0 2z"/><path d="m99.782 65h-36.134a1 1 0 0 1 0-2h36.134a1 1 0 1 1 0 2z"/><path d="m115.149 128h-102.34a12.4 12.4 0 0 1 -9.071-3.737 12.406 12.406 0 0 1 -3.738-9.072v-56.176a1 1 0 0 1 2 0v56.176a10.338 10.338 0 0 0 3.151 7.657 10.334 10.334 0 0 0 7.658 3.152h102.34a10.758 10.758 0 0 0 10.808-10.809v-56.176a1 1 0 0 1 2 0v56.176a12.759 12.759 0 0 1 -12.808 12.809z"/><path d="m107.311 77.6a1 1 0 0 1 -.6-1.8l17.433-12.911a4.6 4.6 0 0 0 1.814-3.866 1 1 0 0 1 .037-.269 4.6 4.6 0 0 0 -1.823-3.683s-4.451-3.3-10.766-7.97a1 1 0 0 1 1.194-1.611c6.33 4.682 10.788 7.987 10.788 7.987a6.619 6.619 0 0 1 2.612 5.483 1 1 0 0 1 -.043.291 6.547 6.547 0 0 1 -2.6 5.229l-17.451 12.92a1 1 0 0 1 -.595.2z"/><path d="m63.98 106.511c-2.324 0-5.152-1.045-8.405-3.106-.858-.465-12.814-9.211-35.479-25.96a1 1 0 0 1 -.405-.8v-54.675a1 1 0 0 1 .293-.707l20.969-20.97a1 1 0 0 1 .707-.293h62.7a3.954 3.954 0 0 1 3.949 3.95v9.04a1 1 0 0 1 -2 0v-9.04a1.952 1.952 0 0 0 -1.949-1.95h-62.286l-20.384 20.384v53.752c29.149 21.54 34.382 25.254 34.9 25.547q4.474 2.832 7.39 2.828c1.93 0 4.4-.941 7.335-2.8.95-.537 14.325-10.332 34.994-25.619v-55.826a1 1 0 0 1 2 0v56.334a1 1 0 0 1 -.405.8c-12.749 9.43-34.323 25.351-35.576 26.034-3.253 2.066-6.002 3.077-8.348 3.077z"/></g></svg>