<?xml version="1.0" encoding="utf-8"?>
<!-- Generator: Adobe Illustrator 24.0.1, SVG Export Plug-In . SVG Version: 6.00 Build 0)  -->
<svg version="1.1" id="Capa_1" xmlns="http://www.w3.org/2000/svg" xmlns:xlink="http://www.w3.org/1999/xlink" x="0px" y="0px"
	 viewBox="0 0 512 512" style="enable-background:new 0 0 512 512;" xml:space="preserve">
<style type="text/css">
	.st0{fill:#6897BE;}
	.st1{fill:url(#SVGID_1_);}
	.st2{fill:url(#SVGID_2_);}
	.st3{fill:url(#SVGID_3_);}
	.st4{fill:url(#SVGID_4_);}
	.st5{fill:url(#SVGID_5_);}
	.st6{fill:url(#SVGID_6_);}
</style>
<g>
	<g>
		<path class="st0" d="M447.3,256c0-7.5-0.4-15-1.3-22.3c-1.1-9.4,2.6-18.7,9.7-24.9l29.3-25.7c9.9-8.7,12.2-23.3,5.3-34.6L459,97.1
			c-6.9-11.3-20.9-16-33.2-11.2l-36.5,14.3c-8.8,3.5-18.8,2.3-26.6-3c-8.5-5.7-17.4-10.7-26.7-15c-8.6-4-14.8-11.8-16.4-21.1
			l-6.7-38.6C310.6,9.5,299.3,0,286.1,0h-60.2c-13.2,0-24.5,9.5-26.8,22.5l-6.7,38.6c-1.6,9.3-7.8,17.2-16.4,21.1
			c-9.3,4.3-18.3,9.3-26.7,15c-7.9,5.3-17.8,6.5-26.6,3L86.2,86C73.9,81.1,59.9,85.9,53,97.1l-31.3,51.4
			c-6.9,11.3-4.6,25.9,5.3,34.6l29.3,25.7c7.1,6.2,10.8,15.5,9.7,24.9c-0.9,7.3-1.3,14.7-1.3,22.3s0.4,15,1.3,22.3
			c1.1,9.4-2.6,18.7-9.7,24.9L27,328.9c-9.9,8.7-12.2,23.3-5.3,34.6L53,414.9c6.9,11.3,20.9,16,33.2,11.2l36.5-14.3
			c8.8-3.5,18.8-2.3,26.6,3c8.5,5.7,17.4,10.7,26.7,15c8.6,4,14.8,11.8,16.4,21.1l6.7,38.6c2.3,13,13.6,18.5,26.8,18.5h60.2
			c13.2,0,24.5-5.5,26.8-18.5l6.7-38.6c1.6-9.3,7.8-17.2,16.4-21.1c9.3-4.3,18.3-9.3,26.7-15c7.9-5.3,17.8-6.5,26.6-3l36.5,14.3
			c12.3,4.8,26.3,0.1,33.2-11.2l31.3-51.4c6.9-11.3,4.6-25.9-5.3-34.6l-29.3-25.7c-7.1-6.2-10.8-15.5-9.7-24.9
			C446.8,271,447.3,263.5,447.3,256L447.3,256z"/>
		<circle class="st0" cx="256" cy="256" r="156.4"/>
	</g>
	
		<linearGradient id="SVGID_1_" gradientUnits="userSpaceOnUse" x1="277.3224" y1="180.6613" x2="100.9484" y2="268.3494" gradientTransform="matrix(1.0039 0 0 -1.0039 0.1608 514.5443)">
		<stop  offset="0" style="stop-color:#4C8DF1;stop-opacity:0"/>
		<stop  offset="0.5631" style="stop-color:#466CC8;stop-opacity:0.563"/>
		<stop  offset="1" style="stop-color:#4256AC"/>
	</linearGradient>
	<path class="st1" d="M286.1,512c13.2,0,24.5-9.5,26.8-22.5l6.7-38.6c1.6-9.3,7.8-17.2,16.4-21.1c9.3-4.3,18.3-9.3,26.7-15
		c7.9-5.3,17.8-6.5,26.6-3l36.5,14.3c12.3,4.8,26.3,0.1,33.2-11.2l31.3-51.4c6.9-11.3,4.6-25.9-5.3-34.6l-29.3-25.7
		c-7.1-6.2-10.8-15.5-9.7-24.9c0.5-4.4,0.9-8.8,1.1-13.3l-96.4-96.4c-6-6.5-12.7-12.4-19.9-17.5c-5.8-4.2-13.9,0.1-13.9,7.2v85
		c0,8.8-4,17-10.7,22.4c-1.3-1.2-112.2-112-113.1-113.1c-2.8-3.4-7.9-2.5-12,0.4c-32.7,23.4-52,59.8-51.9,103.1
		c0.1,37.3,13.9,70.8,39.2,94.3l27.7,27.8l1,64.7c0,15.6-0.7,31.1,2,46.5c2.3,13,13.6,22.5,26.8,22.5H286.1z"/>
	
		<linearGradient id="SVGID_2_" gradientUnits="userSpaceOnUse" x1="418.5379" y1="112.2894" x2="277.5379" y2="180.2894" gradientTransform="matrix(1.0039 0 0 -1.0039 0.1608 514.5443)">
		<stop  offset="0" style="stop-color:#4C8DF1;stop-opacity:0"/>
		<stop  offset="0.5631" style="stop-color:#466CC8;stop-opacity:0.563"/>
		<stop  offset="1" style="stop-color:#4256AC"/>
	</linearGradient>
	<path class="st2" d="M490.3,363.5L459,414.9c-6.9,11.3-20.9,16-33.2,11.2l-36.5-14.3c-8.8-3.5-18.8-2.2-26.6,3.1
		c-8.5,5.7-17.4,10.7-26.7,15c-8.6,4-14.8,11.8-16.4,21.1l-6.7,38.6c-2.3,13-13.6,19.5-26.8,19.5h-60.2c-6.6,0-12.7-2.4-17.5-6.4
		c-2.4-2-4.5-1.5-6.1-4.3c4,2.3,8.6,3.6,13.5,3.6H276c13.2,0,24.5-9.5,26.8-22.5c1.3-7.7,2.3-15.4,3-23.2s1-15.5,1-23.3v-73.5
		c40.4-21.7,67.9-64.4,67.9-113.6c0-33-12.4-63.1-32.8-85.9c3,2.7,5.9,5.5,8.7,8.5l96.4,96.4c-0.2,4.5-0.6,8.9-1.1,13.3
		c-1.1,9.4,2.6,18.7,9.7,24.9l29.3,25.7C494.9,337.6,497.2,352.2,490.3,363.5L490.3,363.5z"/>
	
		<linearGradient id="SVGID_3_" gradientUnits="userSpaceOnUse" x1="250.3761" y1="104.0706" x2="326.9071" y2="27.5396" gradientTransform="matrix(1.0039 0 0 -1.0039 0.1608 514.5443)">
		<stop  offset="0" style="stop-color:#E3E5E4"/>
		<stop  offset="1" style="stop-color:#CBD0E4"/>
	</linearGradient>
	<path class="st3" d="M312.9,489.5c2.7-15.3,4-30.9,4-46.5V336.6H195.1V443c0,15.6,1.3,31.1,4,46.5c2.3,13,13.6,22.5,26.8,22.5h60.2
		C299.3,512,310.6,502.5,312.9,489.5z"/>
	
		<linearGradient id="SVGID_4_" gradientUnits="userSpaceOnUse" x1="292.0935" y1="76.4761" x2="241.4275" y2="191.1422" gradientTransform="matrix(1.0039 0 0 -1.0039 0.1608 514.5443)">
		<stop  offset="0" style="stop-color:#CBD0E4;stop-opacity:0"/>
		<stop  offset="1" style="stop-color:#6A7D83"/>
	</linearGradient>
	<path class="st4" d="M195.1,369.6l118.1,118.1c2.5-14.8,3.7-29.7,3.7-44.7V336.6H195.1L195.1,369.6z"/>
	
		<linearGradient id="SVGID_5_" gradientUnits="userSpaceOnUse" x1="207.8227" y1="304.5172" x2="375.4087" y2="136.9312" gradientTransform="matrix(1.0039 0 0 -1.0039 0.1608 514.5443)">
		<stop  offset="0" style="stop-color:#E3E5E4"/>
		<stop  offset="1" style="stop-color:#CBD0E4"/>
	</linearGradient>
	<path class="st5" d="M384.8,256c0,71.2-57.7,128.8-128.8,128.8c-71.2,0-128.7-57.5-128.8-128.6c-0.1-43.3,21.2-81.7,54-105.1
		c5.8-4.2,14,0,14,7.2v85c0,10.3,5.5,19.9,14.5,25.1l32,18.5c9,5.2,20,5.2,29,0l32-18.5c9-5.2,14.5-14.7,14.5-25.1v-85
		c0-7.2,8.1-11.4,13.9-7.2C363.5,174.5,384.8,212.7,384.8,256L384.8,256z"/>
	
		<linearGradient id="SVGID_6_" gradientUnits="userSpaceOnUse" x1="326.089" y1="214.7834" x2="136.087" y2="404.7864" gradientTransform="matrix(1.0039 0 0 -1.0039 0.1608 514.5443)">
		<stop  offset="0" style="stop-color:#E3E5E4"/>
		<stop  offset="1" style="stop-color:#CBD0E4"/>
	</linearGradient>
	<path class="st6" d="M160.7,266.9c0,16.2,8.6,31.2,22.7,39.2l50,28.9c14,8.1,31.3,8.1,45.3,0l50-28.9c14-8.1,22.7-23.1,22.7-39.2
		v-97.5c-6.2-6.8-13-12.9-20.5-18.3c-5.8-4.2-13.9,0.1-13.9,7.2v85c0,10.3-5.5,19.9-14.5,25.1l-32,18.5c-9,5.2-20,5.2-29,0l-32-18.5
		c-9-5.2-14.5-14.7-14.5-25.1v-85c0-7.2-8.1-11.3-14-7.2c-7.5,5.3-14.3,11.4-20.5,18.2L160.7,266.9L160.7,266.9z"/>
</g>
</svg>
