<?xml version="1.0" encoding="utf-8"?>
<!-- Generator: Adobe Illustrator 24.0.1, SVG Export Plug-In . SVG Version: 6.00 Build 0)  -->
<svg version="1.1" id="Capa_1" xmlns="http://www.w3.org/2000/svg" xmlns:xlink="http://www.w3.org/1999/xlink" x="0px" y="0px"
	 viewBox="0 0 368 368" style="enable-background:new 0 0 368 368;" xml:space="preserve">
<style type="text/css">
	.st0{fill:#6897BE;}
</style>
<title>up-arrow</title>
<path class="st0" d="M184,0C82.5,0,0,82.5,0,184s82.5,184,184,184s184-82.5,184-184S285.5,0,184,0z M184,352
	c-92.6,0-168-75.4-168-168S91.4,16,184,16s168,75.4,168,168S276.6,352,184,352z"/>
<path class="st0" d="M190.5,67.3c-3-4.2-10-4.2-13,0l-80,112c-2.6,3.6-1.7,8.6,1.8,11.2c1.4,1,3,1.5,4.6,1.5h40v96
	c0,8.8,7.2,16,16,16h0.1c1.7,0,47.9,0,47.9,0l0,0c8.8,0,16-7.2,16-16v-96h40c4.4,0,8-3.6,8-8c0-1.7-0.5-3.3-1.5-4.7L190.5,67.3z
	 M216,176c-4.4,0-8,3.6-8,8v104h-40.5c-2.8,0-5.3,0-7.5,0.2V184c0-4.4-3.6-8-8-8h-32.5L184,85.8l64.4,90.2H216z"/>
</svg>
